<?xml version="1.0" encoding="UTF-8"?>
<!-- Created by Svg.la -->
<svg version="1.1" xmlns="http://www.w3.org/2000/svg" width="600" height="600">
<path d="M0 0 C198 0 396 0 600 0 C600 198 600 396 600 600 C402 600 204 600 0 600 C0 402 0 204 0 0 Z " fill="#0D1B30" transform="translate(0,0)"/>
<path d="M0 0 C0.776 -0 1.552 -0.001 2.351 -0.001 C45.961 0.073 90.364 15.134 124.562 42.375 C125.38 42.989 126.197 43.602 127.039 44.234 C142.64 56.309 156.512 71.059 167.562 87.375 C167.959 87.948 168.356 88.522 168.765 89.113 C192.047 122.903 203.732 162.062 203.875 202.938 C203.878 203.659 203.88 204.38 203.883 205.122 C203.888 218.823 202.468 231.965 199.562 245.375 C199.33 246.459 199.33 246.459 199.093 247.564 C198.126 251.907 196.904 256.134 195.562 260.375 C195.343 261.088 195.123 261.801 194.897 262.536 C184.783 294.959 167.751 321.83 144.562 346.375 C144.105 346.866 143.648 347.357 143.177 347.863 C131.383 360.477 117.604 370.906 102.562 379.375 C101.891 379.757 101.219 380.139 100.527 380.533 C83.755 390 65.685 398.177 46.706 401.938 C45.219 402.241 43.736 402.57 42.259 402.917 C-6.331 414.317 -60.649 405.131 -103.31 379.66 C-113.531 373.268 -123.425 366.399 -132.438 358.375 C-133.382 357.55 -134.327 356.725 -135.301 355.875 C-153.199 340.034 -168.394 321.567 -179.432 300.309 C-180.44 298.371 -181.476 296.449 -182.516 294.527 C-187.606 284.928 -191.298 275.003 -194.673 264.687 C-195.169 263.188 -195.679 261.695 -196.208 260.208 C-207.209 228.915 -207.849 188.555 -199.078 156.717 C-198.498 154.595 -197.997 152.474 -197.531 150.324 C-189.756 116.81 -170.181 86.576 -146.834 61.855 C-145.511 60.453 -144.198 59.039 -142.887 57.625 C-117.743 31.375 -82.655 13.11 -47.375 5.312 C-45.705 4.929 -45.705 4.929 -44.002 4.537 C-29.327 1.269 -14.985 -0.034 0 0 Z " fill="#487F96" transform="translate(302.4375,89.625)"/>
<path d="M0 0 C0.811 -0.012 1.622 -0.024 2.457 -0.037 C3.237 -0.039 4.017 -0.041 4.82 -0.043 C5.527 -0.047 6.233 -0.051 6.961 -0.055 C8.875 0.188 8.875 0.188 11.875 2.188 C11.215 2.518 10.555 2.847 9.875 3.188 C11.151 3.453 12.427 3.719 13.742 3.992 C15.412 4.349 17.081 4.705 18.75 5.062 C19.592 5.237 20.434 5.411 21.301 5.59 C22.106 5.764 22.912 5.938 23.742 6.117 C24.486 6.274 25.229 6.431 25.996 6.593 C27.875 7.188 27.875 7.188 29.875 9.188 C29.215 9.188 28.555 9.188 27.875 9.188 C27.875 9.847 27.875 10.507 27.875 11.188 C28.447 11.293 29.02 11.399 29.609 11.508 C32.228 12.294 33.936 13.433 36.125 15.062 C37.185 15.832 37.185 15.832 38.266 16.617 C39.062 17.394 39.062 17.394 39.875 18.188 C39.875 19.178 39.875 20.167 39.875 21.188 C39.215 21.188 38.555 21.188 37.875 21.188 C38.473 22.26 39.071 23.333 39.688 24.438 C44.318 33.786 45.382 43.505 45.312 53.812 C45.332 54.867 45.352 55.921 45.373 57.008 C45.368 64.74 44.461 71.942 39.312 78.038 C37.041 80.238 34.659 82.262 32.213 84.264 C28.776 87.291 28.776 87.291 27.713 91.593 C27.962 93.849 28.324 95.987 28.875 98.188 C24.791 97.445 20.856 96.358 16.875 95.188 C19.348 98.045 21.953 99.273 25.375 100.812 C48.012 111.886 62.228 134.336 74.875 155.188 C75.523 156.253 75.523 156.253 76.185 157.34 C82.875 168.414 82.875 168.414 82.875 173.188 C70.701 172.658 62.141 163.17 53.875 155.188 C58.218 165.4 69.698 172.933 79.477 177.367 C82.015 178.365 82.015 178.365 85.438 178.312 C88.875 179.188 88.875 179.188 90.211 180.887 C92.162 184.63 92.875 186.874 92.875 191.188 C85.967 191.057 81.942 188.669 76.293 184.781 C73.893 183.05 73.893 183.05 70.875 182.188 C77.635 188.733 77.635 188.733 85.562 193.688 C90.809 196.38 93.631 200.374 96.875 205.188 C97.639 206.251 97.639 206.251 98.418 207.336 C101.196 211.398 102.511 214.101 101.875 219.188 C97.712 218.636 94.978 216.171 91.812 213.625 C90.643 212.706 89.472 211.788 88.301 210.871 C87.43 210.186 87.43 210.186 86.542 209.488 C80.655 204.895 74.565 200.618 68.322 196.527 C55.897 188.379 44.249 179.622 35.875 167.188 C36.461 171.281 38.621 173.79 41.125 177 C41.56 177.558 41.996 178.116 42.444 178.692 C47.067 184.552 51.967 190.173 56.895 195.777 C57.889 196.914 58.882 198.05 59.875 199.188 C60.369 199.75 60.863 200.312 61.373 200.891 C64.875 204.957 64.875 204.957 64.875 207.188 C46.967 205.308 29.84 185.452 17.875 173.188 C16.876 172.186 15.876 171.186 14.875 170.188 C16.123 171.918 17.374 173.647 18.625 175.375 C19.321 176.338 20.017 177.301 20.734 178.293 C23.781 182.412 26.706 186.243 30.625 189.562 C31.654 190.442 31.654 190.442 32.703 191.34 C33.42 191.95 34.137 192.559 34.875 193.188 C36.377 194.498 37.877 195.81 39.375 197.125 C40.045 197.712 40.716 198.298 41.406 198.902 C41.891 199.326 42.376 199.751 42.875 200.188 C42.215 200.518 41.555 200.847 40.875 201.188 C24.796 193.826 11.167 180.591 -1.125 168.188 C7.596 182.161 18.663 191.981 32.875 200.188 C30.875 201.188 30.875 201.188 27.883 200.324 C26.584 199.854 25.29 199.369 24 198.875 C23.297 198.606 22.593 198.336 21.869 198.059 C-4.003 187.857 -31.457 172.681 -43.125 146.188 C-44.796 141.879 -45.575 137.773 -46.125 133.188 C-46.455 133.188 -46.785 133.188 -47.125 133.188 C-47.455 136.488 -47.785 139.788 -48.125 143.188 C-55.431 135.881 -55.653 120.469 -55.698 110.665 C-55.272 98.389 -47.359 88.619 -40.262 79.148 C-38.6 76.846 -37.265 74.77 -36.125 72.188 C-34.475 72.188 -32.825 72.188 -31.125 72.188 C-31.909 71.28 -32.692 70.373 -33.5 69.438 C-36.714 65.559 -38.125 63.371 -38.125 58.188 C-37.568 58.404 -37.011 58.621 -36.438 58.844 C-31.073 60.801 -26.826 61.498 -21.125 61.188 C-21.125 60.528 -21.125 59.868 -21.125 59.188 C-22.445 59.188 -23.765 59.188 -25.125 59.188 C-25.125 58.528 -25.125 57.868 -25.125 57.188 C-24.424 56.631 -23.723 56.074 -23 55.5 C-20.583 53.556 -19.297 52.132 -17.508 49.711 C-13.962 45.513 -10.371 44.586 -5.125 43.5 C0.736 42.199 5.059 40.853 9.875 37.188 C8.225 36.858 6.575 36.528 4.875 36.188 C4.789 35.512 4.702 34.837 4.613 34.141 C3.721 28.402 3.721 28.402 0.688 23.562 C-2.9 21.809 -5.172 21.693 -9.125 22.188 C-12.664 23.839 -13.936 24.904 -16.125 28.188 C-16.592 33.886 -16.134 37.172 -13.125 42.188 C-18.406 40.702 -22.406 37.101 -26.125 33.188 C-26.125 32.528 -26.125 31.868 -26.125 31.188 C-26.661 30.94 -27.197 30.692 -27.75 30.438 C-28.534 30.025 -29.317 29.613 -30.125 29.188 C-31.197 28.631 -32.27 28.074 -33.375 27.5 C-36.125 25.188 -36.125 25.188 -36.688 21.812 C-35.707 15.496 -33.247 11.604 -28.355 7.641 C-19.447 1.837 -10.395 0.008 0 0 Z " fill="#FBFCFC" transform="translate(323.125,171.8125)"/>
<path d="M0 0 C0.939 -0.01 1.878 -0.02 2.845 -0.031 C8.797 0.044 13.401 1.013 18.812 3.438 C20.359 4.02 20.359 4.02 21.938 4.613 C32.796 8.907 42.116 14.871 47 25.875 C52.209 40.39 55.434 60.251 49.875 75.062 C47.249 80.322 43.656 84.748 39.801 89.16 C37.436 91.868 35.925 93.671 35.395 97.273 C35.95 101.478 37.579 103.034 40.5 106.062 C41.37 106.983 42.24 107.903 43.137 108.852 C45.593 111.226 48.134 113.322 50.812 115.438 C62.163 126.399 70.519 141.206 78.681 154.591 C79.75 156.336 80.839 158.069 81.93 159.801 C85.555 165.577 88.97 171.427 92.188 177.438 C92.522 178.061 92.856 178.684 93.2 179.326 C95.935 184.512 97.959 188.419 97.812 194.312 C98.279 201.605 102.492 206.547 106.66 212.25 C108.812 215.438 108.812 215.438 108.812 218.438 C107.822 218.438 106.832 218.438 105.812 218.438 C105.482 219.097 105.153 219.757 104.812 220.438 C104.388 219.676 103.964 218.914 103.527 218.129 C96.591 205.078 96.591 205.078 85.078 196.676 C80.036 193.92 75.925 189.399 71.812 185.438 C72.143 184.778 72.472 184.118 72.812 183.438 C73.537 183.908 74.261 184.379 75.008 184.863 C84.32 191.02 84.32 191.02 94.812 194.438 C94.379 193.389 94.379 193.389 93.938 192.32 C93.566 191.41 93.195 190.5 92.812 189.562 C92.441 188.658 92.07 187.753 91.688 186.82 C90.812 184.438 90.812 184.438 90.812 182.438 C89.905 182.561 88.998 182.685 88.062 182.812 C77.817 182.709 69.392 174.901 62.461 168.141 C59.402 165.018 56.543 161.85 53.812 158.438 C54.143 157.778 54.472 157.118 54.812 156.438 C55.346 157.006 55.88 157.574 56.43 158.16 C64.351 166.369 73.298 174.316 84.812 176.438 C82.027 168.534 78.179 161.679 73.688 154.625 C73.02 153.569 72.353 152.513 71.666 151.425 C66.762 143.746 61.686 136.408 55.812 129.438 C54.695 128.111 54.695 128.111 53.555 126.758 C43.405 115.123 32.621 107.26 18.812 100.438 C18.812 99.778 18.812 99.118 18.812 98.438 C23.13 98.945 26.846 99.634 30.812 101.438 C30.483 100.881 30.153 100.324 29.812 99.75 C28.571 96.88 28.298 95.55 28.812 92.438 C31.132 89.511 34.039 87.146 36.84 84.693 C43.289 78.715 45.898 72.177 46.309 63.414 C46.31 61.297 46.29 59.179 46.25 57.062 C46.257 56.016 46.264 54.969 46.271 53.891 C46.186 43.219 43.996 33.768 38.812 24.438 C38.317 23.447 38.317 23.447 37.812 22.438 C39.793 22.933 39.793 22.933 41.812 23.438 C38.137 19.428 34.623 16.984 29.812 14.438 C29.812 13.447 29.812 12.458 29.812 11.438 C23.543 10.118 17.272 8.798 10.812 7.438 C10.812 6.447 10.812 5.458 10.812 4.438 C-4.544 3.817 -18.689 4.689 -30.562 15.625 C-32.902 19.674 -33.51 23.849 -34.188 28.438 C-33.466 28.685 -32.744 28.933 -32 29.188 C-26.768 31.513 -23.185 35.44 -19.188 39.438 C-17.218 41.146 -15.21 42.791 -13.188 44.438 C-13.517 43.778 -13.847 43.118 -14.188 42.438 C-15.426 38.723 -15.738 35.298 -15.188 31.438 C-13.094 27.998 -11.068 25.657 -7.188 24.438 C-3.87 24.007 -1.383 23.72 1.562 25.488 C3.75 27.271 5.541 28.894 6.812 31.438 C6.947 34.11 6.856 36.76 6.812 39.438 C8.793 39.438 10.772 39.438 12.812 39.438 C8.364 44.581 3.634 46.776 -3.055 47.934 C-10.951 49.39 -14.501 52.026 -19.445 58.355 C-20.02 59.043 -20.595 59.73 -21.188 60.438 C-21.847 60.438 -22.507 60.438 -23.188 60.438 C-23.188 61.097 -23.188 61.757 -23.188 62.438 C-21.868 62.438 -20.548 62.438 -19.188 62.438 C-19.188 63.097 -19.188 63.757 -19.188 64.438 C-22.095 65.891 -23.927 65.734 -27.188 65.438 C-30.279 64.283 -33.234 62.908 -36.188 61.438 C-34.143 67.039 -32.325 72.004 -28.188 76.438 C-30.168 76.438 -32.147 76.438 -34.188 76.438 C-34.662 77.51 -35.136 78.582 -35.625 79.688 C-37.549 83.583 -39.951 86.831 -42.625 90.25 C-51.04 101.386 -53.575 110.636 -52.188 124.438 C-51.228 131.309 -49.446 137.887 -47.188 144.438 C-46.692 140.478 -46.692 140.478 -46.188 136.438 C-45.197 136.438 -44.207 136.438 -43.188 136.438 C-43.09 137.055 -42.992 137.672 -42.891 138.309 C-39.489 157.574 -27.735 170.474 -12.188 181.438 C-4.358 186.87 3.94 191.104 12.5 195.25 C13.462 195.718 14.424 196.187 15.416 196.67 C21.424 199.52 27.383 201.735 33.812 203.438 C33.146 203.037 32.48 202.636 31.793 202.223 C19.414 194.588 3.885 184.297 -0.188 169.438 C3.071 171.998 5.911 174.449 8.5 177.688 C14.544 184.918 22.528 190.325 30.125 195.812 C30.699 196.229 31.274 196.646 31.865 197.075 C38.281 201.795 38.281 201.795 45.812 203.438 C45.812 204.757 45.812 206.077 45.812 207.438 C44.926 207.231 44.039 207.025 43.125 206.812 C39.89 206.177 39.89 206.177 37.375 207.438 C29.53 210.499 17.266 204.418 9.812 201.438 C-4.574 195.005 -16.734 186.22 -28.188 175.438 C-28.876 174.825 -29.564 174.213 -30.273 173.582 C-36.559 167.756 -40.776 160.709 -45.188 153.438 C-43.927 158.631 -42.088 162.778 -39.125 167.25 C-38.531 168.16 -38.531 168.16 -37.924 169.089 C-34.18 174.686 -29.833 179.571 -25.188 184.438 C-23.658 186.097 -22.137 187.763 -20.625 189.438 C-19.964 190.159 -19.302 190.881 -18.621 191.625 C-17.188 193.438 -17.188 193.438 -17.188 195.438 C-20.203 194.278 -22.111 192.625 -24.336 190.352 C-25.139 189.535 -25.139 189.535 -25.958 188.702 C-26.364 188.284 -26.77 187.867 -27.188 187.438 C-26.801 188.467 -26.414 189.497 -26.016 190.559 C-20.425 205.725 -16.659 220.229 -16.188 236.438 C-15.197 236.438 -14.207 236.438 -13.188 236.438 C-12.858 237.428 -12.528 238.418 -12.188 239.438 C-10.868 239.438 -9.548 239.438 -8.188 239.438 C-7.528 239.768 -6.868 240.097 -6.188 240.438 C-1.296 225.223 -1.296 225.223 -0.188 209.438 C-3.436 206.088 -7.323 204.274 -11.516 202.367 C-13.188 201.438 -13.188 201.438 -14.188 199.438 C-12.868 199.438 -11.548 199.438 -10.188 199.438 C-11.507 197.788 -12.827 196.137 -14.188 194.438 C-13.858 193.778 -13.528 193.118 -13.188 192.438 C-12.353 193.078 -11.519 193.719 -10.66 194.379 C-10.119 194.794 -9.579 195.208 -9.022 195.636 C-7.83 196.553 -6.642 197.474 -5.457 198.399 C-2.86 200.42 -0.29 202.371 2.469 204.168 C12.055 210.553 14.512 221.469 16.938 232.125 C17.072 232.808 17.206 233.491 17.345 234.195 C18.248 238.441 19.211 240.084 22.812 242.438 C22.812 243.428 22.812 244.418 22.812 245.438 C24.132 245.768 25.452 246.097 26.812 246.438 C25.822 246.438 24.832 246.438 23.812 246.438 C23.317 249.408 23.317 249.408 22.812 252.438 C23.472 252.438 24.132 252.438 24.812 252.438 C24.67 254.959 24.524 257.479 24.375 260 C24.336 260.704 24.296 261.409 24.256 262.135 C23.987 266.615 23.448 270.991 22.812 275.438 C22.729 277.228 22.682 279.02 22.688 280.812 C22.685 281.666 22.682 282.519 22.68 283.398 C22.587 285.432 22.587 285.432 23.812 286.438 C23.885 288.624 23.896 290.813 23.875 293 C23.866 294.198 23.857 295.395 23.848 296.629 C23.836 297.556 23.824 298.483 23.812 299.438 C24.743 299.729 25.674 300.02 26.633 300.32 C30.102 301.539 32.217 302.842 34.812 305.438 C34.812 306.757 34.812 308.077 34.812 309.438 C34.008 309.272 33.204 309.108 32.375 308.938 C31.199 308.772 30.024 308.608 28.812 308.438 C28.124 308.334 27.436 308.231 26.727 308.125 C21.794 307.71 19.125 308.517 15.188 311.562 C13.713 312.836 12.254 314.127 10.812 315.438 C9.522 316.523 8.231 317.606 6.938 318.688 C4.803 320.523 2.785 322.429 0.812 324.438 C-1.617 320.793 -1.349 318.725 -1.188 314.438 C-2.792 314.579 -4.396 314.726 -6 314.875 C-6.893 314.956 -7.787 315.037 -8.707 315.121 C-11.315 315.372 -11.315 315.372 -14.188 316.438 C-13.937 312.185 -13.619 309.962 -10.875 306.625 C-6.417 302.996 -3.991 302.174 1.812 302.438 C1.483 304.748 1.153 307.058 0.812 309.438 C2.132 309.767 3.452 310.098 4.812 310.438 C4.153 311.428 3.493 312.418 2.812 313.438 C3.493 312.777 4.174 312.118 4.875 311.438 C8.457 308.999 10.568 309.105 14.812 309.438 C14.47 306.467 14.47 306.467 13.812 303.438 C13.153 303.108 12.493 302.777 11.812 302.438 C12.116 301.622 12.419 300.807 12.732 299.967 C13.957 295.967 14.564 292.099 15.102 287.961 C15.264 286.751 15.264 286.751 15.429 285.517 C15.656 283.815 15.879 282.112 16.1 280.409 C16.434 277.84 16.783 275.274 17.133 272.707 C20.175 257.68 20.175 257.68 16.969 243.809 C16.257 243.026 15.546 242.244 14.812 241.438 C13.7 238.19 13.021 234.856 12.312 231.5 C10.994 225.286 9.748 220.498 5.812 215.438 C3.214 218.036 3.649 219.081 3.625 222.688 C3.272 228.176 1.876 232.283 -0.562 237.125 C-0.867 237.737 -1.171 238.349 -1.485 238.979 C-3.781 243.302 -3.781 243.302 -7.188 244.438 C-7.929 246.411 -8.583 248.418 -9.188 250.438 C-10.12 252.5 -11.088 254.546 -12.086 256.578 C-12.648 257.732 -13.21 258.886 -13.789 260.074 C-14.38 261.279 -14.971 262.483 -15.562 263.688 C-23.916 277.922 -23.916 277.922 -26.188 293.438 C-23.373 295.758 -23.373 295.758 -20.188 297.438 C-18.188 299.438 -18.188 299.438 -18.188 303.438 C-18.992 303.272 -19.796 303.108 -20.625 302.938 C-21.801 302.772 -22.976 302.608 -24.188 302.438 C-24.829 302.311 -25.471 302.185 -26.133 302.055 C-33.168 301.25 -37.865 304.989 -43.211 309.035 C-46.474 311.669 -49.389 314.319 -52.188 317.438 C-53.178 317.108 -54.168 316.777 -55.188 316.438 C-54.858 313.467 -54.527 310.498 -54.188 307.438 C-60.576 307.792 -60.576 307.792 -66.188 310.438 C-66.59 306.33 -66.605 304.1 -64.375 300.562 C-59.837 297.537 -55.542 297.541 -50.188 297.438 C-50.188 298.098 -50.188 298.757 -50.188 299.438 C-51.507 299.438 -52.827 299.438 -54.188 299.438 C-53.527 300.098 -52.868 300.757 -52.188 301.438 C-48.807 301.438 -46.353 300.563 -43.188 299.438 C-45.854 302.104 -48.521 304.771 -51.188 307.438 C-50.561 306.932 -49.935 306.427 -49.289 305.906 C-48.472 305.257 -47.655 304.607 -46.812 303.938 C-46 303.288 -45.188 302.638 -44.352 301.969 C-42.188 300.438 -42.188 300.438 -40.188 300.438 C-40.188 299.777 -40.188 299.118 -40.188 298.438 C-42.498 298.438 -44.808 298.438 -47.188 298.438 C-46.625 296.062 -46.625 296.062 -45.188 293.438 C-44.091 293.217 -42.994 292.997 -41.863 292.77 C-37.877 291.347 -37.877 291.347 -35.922 288.035 C-35.233 286.536 -34.573 285.023 -33.938 283.5 C-33.575 282.683 -33.212 281.865 -32.838 281.023 C-31.589 278.174 -30.387 275.308 -29.188 272.438 C-28.701 271.296 -28.214 270.154 -27.712 268.977 C-26.167 265.345 -24.641 261.706 -23.125 258.062 C-22.635 256.892 -22.146 255.722 -21.642 254.516 C-21.191 253.41 -20.741 252.304 -20.277 251.164 C-19.874 250.18 -19.47 249.196 -19.054 248.182 C-18.166 245.368 -17.866 243.363 -18.188 240.438 C-18.847 239.447 -19.507 238.457 -20.188 237.438 C-20.504 234.742 -20.74 232.079 -20.938 229.375 C-21.856 219.458 -24.693 210.712 -28.188 201.438 C-28.74 199.945 -29.292 198.453 -29.844 196.961 C-30.845 194.265 -31.861 191.576 -32.891 188.891 C-34.188 185.438 -34.188 185.438 -35.098 182.32 C-36.367 178.963 -38.082 176.817 -40.375 174.062 C-47.586 164.738 -51.884 153.707 -55.188 142.438 C-55.559 141.241 -55.93 140.045 -56.312 138.812 C-59.277 127.38 -61.078 110.945 -55.875 100 C-54.242 97.309 -54.242 97.309 -52.188 94.438 C-51.753 93.828 -51.319 93.218 -50.872 92.59 C-48.967 89.93 -47.052 87.282 -45.059 84.686 C-39.813 78.139 -39.813 78.139 -38.438 70.188 C-38.685 68.95 -38.933 67.713 -39.188 66.438 C-39.392 64.627 -39.579 62.814 -39.75 61 C-39.834 60.135 -39.918 59.27 -40.004 58.379 C-40.064 57.738 -40.125 57.098 -40.188 56.438 C-40.841 56.323 -41.495 56.208 -42.168 56.09 C-46.011 55.26 -49.737 54.135 -53.5 53 C-61.77 50.509 -69.528 48.276 -78.188 47.812 C-78.867 47.774 -79.546 47.735 -80.246 47.695 C-81.893 47.603 -83.54 47.519 -85.188 47.438 C-82.524 41.396 -77.859 38.563 -71.887 36.047 C-61.616 32.446 -50.141 29.039 -39.188 29.438 C-39.09 28.641 -38.992 27.844 -38.891 27.023 C-37.851 19.653 -37.065 14.395 -30.867 9.668 C-28.044 7.758 -25.178 6.071 -22.188 4.438 C-21.399 3.998 -20.61 3.558 -19.797 3.105 C-13.367 0.171 -6.953 0.059 0 0 Z " fill="#202D43" transform="translate(321.1875,168.5625)"/>
<path d="M0 0 C2.888 2.601 4.769 5.625 6.875 8.875 C21.147 29.99 43.251 43.936 67.062 52.062 C67.931 52.362 68.799 52.661 69.694 52.969 C75.001 54.681 79.427 55.303 85 55 C85.33 54.01 85.66 53.02 86 52 C86 52.66 86 53.32 86 54 C87.98 53.67 89.96 53.34 92 53 C92 52.34 92 51.68 92 51 C91.442 50.759 90.884 50.518 90.309 50.27 C79.881 44.535 67.429 31.645 62 21 C62.33 20.34 62.66 19.68 63 19 C63.715 19.799 64.431 20.598 65.168 21.422 C76.373 33.826 87.537 44.48 102 53 C102.905 53.545 102.905 53.545 103.829 54.102 C106.825 55.875 109.532 57.445 113 58 C109.435 53.254 105.771 48.681 101.75 44.312 C86.368 27.4 86.368 27.4 82 17 C85.63 18.21 86.262 19.398 88.5 22.438 C98.132 34.664 110.266 42.462 123.247 50.76 C123.825 51.169 124.404 51.578 125 52 C125 52.33 125 52.66 125 53 C119.365 53.55 116.61 51.95 112 49 C114.588 52.273 117.043 55.148 120.312 57.75 C121.199 58.493 122.086 59.235 123 60 C123 60.66 123 61.32 123 62 C122.01 62 121.02 62 120 62 C120 62.66 120 63.32 120 64 C116.04 63.34 112.08 62.68 108 62 C111.667 67.133 115.471 71.604 119.992 75.996 C122.574 78.573 124.924 81.317 127.297 84.086 C128.898 85.885 130.566 87.531 132.312 89.188 C136.149 92.929 139.287 97.158 142.448 101.469 C145.86 106.058 148.055 108.643 153.75 109.688 C154.822 109.791 155.895 109.894 157 110 C156.67 110.99 156.34 111.98 156 113 C151.452 113.178 148.121 112.998 144 111 C143.67 111.33 143.34 111.66 143 112 C132.705 113.246 125.653 109.26 117.238 103.855 C111.136 98.797 107.089 92.265 103 85.562 C99.268 79.473 95.392 73.637 91 68 C88.591 68.113 88.591 68.113 86 69 C81.078 75.198 80.747 82.54 80.441 90.133 C80 93 80 93 78.568 95.204 C76.674 98.581 76.066 101.832 75.465 105.602 C75.341 106.32 75.216 107.038 75.089 107.778 C74.695 110.059 74.315 112.342 73.938 114.625 C73.555 116.915 73.17 119.205 72.776 121.493 C72.531 122.913 72.294 124.335 72.064 125.757 C71.487 129.13 70.933 131.101 69 134 C67.426 132.426 67.849 130.879 67.844 128.695 C67.904 122.683 68.66 116.821 69.5 110.875 C69.643 109.823 69.786 108.771 69.934 107.688 C70.283 105.124 70.639 102.562 71 100 C70.34 100 69.68 100 69 100 C69.227 99.113 69.454 98.226 69.688 97.312 C70.06 93.365 69.398 92.083 67 89 C65.515 88.01 65.515 88.01 64 87 C63.273 84.565 62.702 82.229 62.188 79.75 C57.9 61.88 51.809 52.801 36 43 C35.01 42.67 34.02 42.34 33 42 C33.495 42.454 33.99 42.908 34.5 43.375 C36 45 36 45 36 47 C35.01 47.33 34.02 47.66 33 48 C33.759 48.398 34.519 48.797 35.301 49.207 C36.295 49.737 37.289 50.267 38.312 50.812 C39.299 51.335 40.285 51.857 41.301 52.395 C45.618 54.962 45.618 54.962 47 57 C47.722 68.047 44.012 78.875 40 89 C38.35 88.01 36.7 87.02 35 86 C34.67 86.66 34.34 87.32 34 88 C33.67 86.68 33.34 85.36 33 84 C31.515 84.495 31.515 84.495 30 85 C28.152 83.152 28.779 79.979 28.688 77.5 C27.99 64.735 24.674 52.797 19.843 41 C19.178 39.353 18.582 37.678 18 36 C18.33 35.34 18.66 34.68 19 34 C19.554 34.566 20.109 35.132 20.68 35.715 C21.766 36.815 21.766 36.815 22.875 37.938 C23.594 38.668 24.314 39.399 25.055 40.152 C26.87 42.057 26.87 42.057 29 43 C25.5 38.239 21.947 33.853 17.625 29.812 C10.042 22.424 4.199 12.675 0 3 C0 2.01 0 1.02 0 0 Z " fill="#202C42" transform="translate(275,321)"/>
<path d="M0 0 C0.939 -0.01 1.878 -0.02 2.845 -0.031 C8.797 0.044 13.401 1.013 18.812 3.438 C20.359 4.02 20.359 4.02 21.938 4.613 C32.796 8.907 42.116 14.871 47 25.875 C52.209 40.39 55.434 60.251 49.875 75.062 C47.249 80.322 43.656 84.748 39.801 89.16 C37.436 91.868 35.925 93.671 35.395 97.273 C35.95 101.478 37.579 103.034 40.5 106.062 C41.37 106.983 42.24 107.903 43.137 108.852 C45.593 111.226 48.134 113.322 50.812 115.438 C62.163 126.399 70.519 141.206 78.681 154.591 C79.75 156.336 80.839 158.069 81.93 159.801 C85.555 165.577 88.97 171.427 92.188 177.438 C92.522 178.061 92.856 178.684 93.2 179.326 C95.935 184.512 97.959 188.419 97.812 194.312 C98.279 201.605 102.492 206.547 106.66 212.25 C108.812 215.438 108.812 215.438 108.812 218.438 C107.822 218.438 106.832 218.438 105.812 218.438 C105.482 219.097 105.153 219.757 104.812 220.438 C104.388 219.676 103.964 218.914 103.527 218.129 C96.591 205.078 96.591 205.078 85.078 196.676 C80.036 193.92 75.925 189.399 71.812 185.438 C72.143 184.778 72.472 184.118 72.812 183.438 C73.537 183.908 74.261 184.379 75.008 184.863 C84.32 191.02 84.32 191.02 94.812 194.438 C94.379 193.389 94.379 193.389 93.938 192.32 C93.566 191.41 93.195 190.5 92.812 189.562 C92.441 188.658 92.07 187.753 91.688 186.82 C90.812 184.438 90.812 184.438 90.812 182.438 C89.905 182.561 88.998 182.685 88.062 182.812 C77.817 182.709 69.392 174.901 62.461 168.141 C59.402 165.018 56.543 161.85 53.812 158.438 C54.143 157.778 54.472 157.118 54.812 156.438 C55.346 157.006 55.88 157.574 56.43 158.16 C64.351 166.369 73.298 174.316 84.812 176.438 C82.027 168.534 78.179 161.679 73.688 154.625 C73.02 153.569 72.353 152.513 71.666 151.425 C66.762 143.746 61.686 136.408 55.812 129.438 C54.695 128.111 54.695 128.111 53.555 126.758 C43.405 115.123 32.621 107.26 18.812 100.438 C18.812 99.778 18.812 99.118 18.812 98.438 C23.13 98.945 26.846 99.634 30.812 101.438 C30.483 100.881 30.153 100.324 29.812 99.75 C28.571 96.88 28.298 95.55 28.812 92.438 C31.132 89.511 34.039 87.146 36.84 84.693 C43.289 78.715 45.898 72.177 46.309 63.414 C46.31 61.297 46.29 59.179 46.25 57.062 C46.257 56.016 46.264 54.969 46.271 53.891 C46.186 43.219 43.996 33.768 38.812 24.438 C38.317 23.447 38.317 23.447 37.812 22.438 C39.793 22.933 39.793 22.933 41.812 23.438 C38.137 19.428 34.623 16.984 29.812 14.438 C29.812 13.447 29.812 12.458 29.812 11.438 C23.543 10.118 17.272 8.798 10.812 7.438 C10.812 6.447 10.812 5.458 10.812 4.438 C-4.544 3.817 -18.689 4.689 -30.562 15.625 C-32.902 19.674 -33.51 23.849 -34.188 28.438 C-33.466 28.685 -32.744 28.933 -32 29.188 C-26.768 31.513 -23.185 35.44 -19.188 39.438 C-17.218 41.146 -15.21 42.791 -13.188 44.438 C-13.517 43.778 -13.847 43.118 -14.188 42.438 C-15.426 38.723 -15.738 35.298 -15.188 31.438 C-13.094 27.998 -11.068 25.657 -7.188 24.438 C-3.87 24.007 -1.383 23.72 1.562 25.488 C3.75 27.271 5.541 28.894 6.812 31.438 C6.947 34.11 6.856 36.76 6.812 39.438 C8.793 39.438 10.772 39.438 12.812 39.438 C8.364 44.581 3.634 46.776 -3.055 47.934 C-10.951 49.39 -14.501 52.026 -19.445 58.355 C-20.02 59.043 -20.595 59.73 -21.188 60.438 C-21.847 60.438 -22.507 60.438 -23.188 60.438 C-23.188 61.097 -23.188 61.757 -23.188 62.438 C-21.868 62.438 -20.548 62.438 -19.188 62.438 C-19.188 63.097 -19.188 63.757 -19.188 64.438 C-22.095 65.891 -23.927 65.734 -27.188 65.438 C-30.279 64.283 -33.234 62.908 -36.188 61.438 C-36.517 62.757 -36.847 64.077 -37.188 65.438 C-38.688 64.312 -38.688 64.312 -40.188 62.438 C-40.375 59.25 -40.375 59.25 -40.188 56.438 C-40.841 56.323 -41.495 56.208 -42.168 56.09 C-46.011 55.26 -49.737 54.135 -53.5 53 C-61.77 50.509 -69.528 48.276 -78.188 47.812 C-78.867 47.774 -79.546 47.735 -80.246 47.695 C-81.893 47.603 -83.54 47.519 -85.188 47.438 C-82.524 41.396 -77.859 38.563 -71.887 36.047 C-61.616 32.446 -50.141 29.039 -39.188 29.438 C-39.09 28.641 -38.992 27.844 -38.891 27.023 C-37.851 19.653 -37.065 14.395 -30.867 9.668 C-28.044 7.758 -25.178 6.071 -22.188 4.438 C-21.399 3.998 -20.61 3.558 -19.797 3.105 C-13.367 0.171 -6.953 0.059 0 0 Z " fill="#1B2940" transform="translate(321.1875,168.5625)"/>
<path d="M0 0 C2.888 2.601 4.769 5.625 6.875 8.875 C25.681 36.697 56.386 50.226 88 58 C86.938 60.478 86.004 61.996 84.012 63.852 C77.215 71.11 77.287 84.557 77 94 C71.573 93.65 71.573 93.65 69 93 C67.688 91.062 67.688 91.062 67 89 C65.515 88.01 65.515 88.01 64 87 C63.273 84.565 62.702 82.229 62.188 79.75 C57.9 61.88 51.809 52.801 36 43 C35.01 42.67 34.02 42.34 33 42 C33.495 42.454 33.99 42.908 34.5 43.375 C36 45 36 45 36 47 C35.01 47.33 34.02 47.66 33 48 C33.759 48.398 34.519 48.797 35.301 49.207 C36.295 49.737 37.289 50.267 38.312 50.812 C39.299 51.335 40.285 51.857 41.301 52.395 C45.618 54.962 45.618 54.962 47 57 C47.722 68.047 44.012 78.875 40 89 C38.35 88.01 36.7 87.02 35 86 C34.67 86.66 34.34 87.32 34 88 C33.67 86.68 33.34 85.36 33 84 C31.515 84.495 31.515 84.495 30 85 C28.152 83.152 28.779 79.979 28.688 77.5 C27.99 64.735 24.674 52.797 19.843 41 C19.178 39.353 18.582 37.678 18 36 C18.33 35.34 18.66 34.68 19 34 C19.554 34.566 20.109 35.132 20.68 35.715 C21.766 36.815 21.766 36.815 22.875 37.938 C23.594 38.668 24.314 39.399 25.055 40.152 C26.87 42.057 26.87 42.057 29 43 C25.5 38.239 21.947 33.853 17.625 29.812 C10.042 22.424 4.199 12.675 0 3 C0 2.01 0 1.02 0 0 Z " fill="#F7F7F7" transform="translate(275,321)"/>
<path d="M0 0 C0.939 -0.01 1.878 -0.02 2.845 -0.031 C8.797 0.044 13.401 1.013 18.812 3.438 C20.359 4.02 20.359 4.02 21.938 4.613 C32.796 8.907 42.116 14.871 47 25.875 C52.209 40.39 55.434 60.251 49.875 75.062 C47.249 80.322 43.656 84.748 39.801 89.16 C37.436 91.868 35.925 93.671 35.395 97.273 C35.95 101.478 37.579 103.034 40.5 106.062 C41.37 106.983 42.24 107.903 43.137 108.852 C45.593 111.226 48.134 113.322 50.812 115.438 C62.163 126.399 70.519 141.206 78.681 154.591 C79.75 156.336 80.839 158.069 81.93 159.801 C85.555 165.577 88.97 171.427 92.188 177.438 C92.522 178.061 92.856 178.684 93.2 179.326 C95.935 184.512 97.959 188.419 97.812 194.312 C98.279 201.605 102.492 206.547 106.66 212.25 C108.812 215.438 108.812 215.438 108.812 218.438 C107.822 218.438 106.832 218.438 105.812 218.438 C105.482 219.097 105.153 219.757 104.812 220.438 C104.388 219.676 103.964 218.914 103.527 218.129 C96.591 205.078 96.591 205.078 85.078 196.676 C80.036 193.92 75.925 189.399 71.812 185.438 C72.142 184.778 72.472 184.118 72.812 183.438 C73.537 183.908 74.261 184.379 75.008 184.863 C84.32 191.02 84.32 191.02 94.812 194.438 C94.379 193.389 94.379 193.389 93.938 192.32 C93.566 191.41 93.195 190.5 92.812 189.562 C92.441 188.658 92.07 187.753 91.688 186.82 C90.812 184.438 90.812 184.438 90.812 182.438 C89.905 182.561 88.998 182.685 88.062 182.812 C77.817 182.709 69.392 174.901 62.461 168.141 C59.402 165.018 56.543 161.85 53.812 158.438 C54.142 157.778 54.472 157.118 54.812 156.438 C55.613 157.29 55.613 157.29 56.43 158.16 C64.351 166.369 73.298 174.316 84.812 176.438 C82.027 168.534 78.179 161.679 73.688 154.625 C73.02 153.569 72.353 152.513 71.666 151.425 C66.762 143.746 61.686 136.408 55.812 129.438 C55.067 128.553 54.322 127.669 53.555 126.758 C43.405 115.123 32.621 107.26 18.812 100.438 C18.812 99.778 18.812 99.118 18.812 98.438 C23.13 98.945 26.846 99.634 30.812 101.438 C30.483 100.881 30.153 100.324 29.812 99.75 C28.571 96.88 28.298 95.55 28.812 92.438 C31.132 89.511 34.039 87.146 36.84 84.693 C43.289 78.715 45.898 72.177 46.309 63.414 C46.31 61.297 46.29 59.179 46.25 57.062 C46.257 56.016 46.264 54.969 46.271 53.891 C46.186 43.219 43.996 33.768 38.812 24.438 C38.317 23.447 38.317 23.447 37.812 22.438 C39.793 22.933 39.793 22.933 41.812 23.438 C38.137 19.428 34.623 16.984 29.812 14.438 C29.812 13.447 29.812 12.458 29.812 11.438 C23.543 10.118 17.272 8.798 10.812 7.438 C10.812 6.447 10.812 5.458 10.812 4.438 C-4.544 3.817 -18.689 4.689 -30.562 15.625 C-32.902 19.674 -33.51 23.849 -34.188 28.438 C-33.527 28.767 -32.868 29.097 -32.188 29.438 C-33.178 29.438 -34.168 29.438 -35.188 29.438 C-37.196 25.295 -37.67 22.022 -37.188 17.438 C-34.289 10.813 -28.345 7.801 -22.188 4.438 C-21.399 3.998 -20.61 3.558 -19.797 3.105 C-13.367 0.171 -6.953 0.059 0 0 Z " fill="#1E2C43" transform="translate(321.1875,168.5625)"/>
<path d="M0 0 C0.33 0.66 0.66 1.32 1 2 C2.035 2.141 3.07 2.281 4.137 2.426 C8.29 3.043 11.082 4.291 14.812 6.188 C26.62 11.974 39.267 15.803 52 19 C50.938 21.478 50.004 22.996 48.012 24.852 C41.215 32.11 41.287 45.557 41 55 C35.573 54.65 35.573 54.65 33 54 C31.688 52.062 31.688 52.062 31 50 C30.01 49.34 29.02 48.68 28 48 C27.273 45.565 26.702 43.229 26.188 40.75 C21.977 23.203 16.561 15.492 1.671 5.29 C0 4 0 4 -1 2 C-0.67 1.34 -0.34 0.68 0 0 Z " fill="#F9F9F9" transform="translate(311,360)"/>
<path d="M0 0 C6.093 0.49 10.035 1.371 14.125 6.125 C15.108 7.398 16.076 8.684 17 10 C16.536 8.855 16.536 8.855 16.062 7.688 C15.321 5.812 14.638 3.913 14 2 C17.126 0.944 19.719 0.492 23 1 C26.431 3.774 28.62 7.318 31 11 C31.721 12.087 32.441 13.173 33.184 14.293 C34.714 16.623 36.206 18.973 37.68 21.34 C39.243 23.842 40.873 26.278 42.57 28.691 C50.368 39.926 50.368 39.926 49 48 C48 49 48 49 44.938 49.125 C39.25 48.208 36.346 43.281 33 39 C28.09 32.731 23.075 26.946 17.379 21.371 C14.692 18.693 12.199 15.903 9.738 13.02 C7.063 9.912 4.277 6.903 1.504 3.883 C0 2 0 2 0 0 Z " fill="#F6F6F6" transform="translate(382,382)"/>
<path d="M0 0 C3.798 -0.374 5.525 -0.422 9 1 C12.634 4.725 15.572 8.852 18.593 13.079 C20.763 16.042 23.114 18.835 25.5 21.625 C25.949 22.154 26.398 22.683 26.861 23.228 C30.952 28.011 35.202 32.642 39.492 37.246 C47 45.491 47 45.491 47 49 C41.373 49.367 37.922 48.401 32.938 45.812 C31.771 45.221 30.604 44.629 29.402 44.02 C23.311 40.404 19.077 36.297 15.25 30.375 C14.625 29.422 14.625 29.422 13.987 28.45 C10.509 23.033 7.394 17.434 4.375 11.75 C3.937 10.928 3.499 10.106 3.048 9.259 C2.648 8.488 2.248 7.717 1.836 6.922 C1.481 6.237 1.125 5.552 0.759 4.847 C0 3 0 3 0 0 Z " fill="#F7F7F8" transform="translate(369,381)"/>
<path d="M0 0 C0 1.65 0 3.3 0 5 C0.701 5 1.403 5 2.125 5 C6.588 6.552 8.458 10.165 11 14 C8.03 14 5.06 14 2 14 C4.475 14.495 4.475 14.495 7 15 C6 18 6 18 3 20 C-3.983 19.748 -10.045 17.361 -16.562 15 C-25.868 11.74 -34.116 9.747 -44 10 C-35.902 0.338 -11.724 -0.567 0 0 Z " fill="#444F69" transform="translate(289,202)"/>
<path d="M0 0 C1.79 0.977 3.581 1.953 5.371 2.93 C7.781 3.911 9.73 4.307 12.273 4.73 C17.747 5.878 21.09 8.78 25.188 12.438 C29.604 16.287 33.56 19.639 39 22 C39.33 20.68 39.66 19.36 40 18 C41.32 18 42.64 18 44 18 C44.33 17.34 44.66 16.68 45 16 C46 19 46 19 45.812 21.625 C45.998 24.972 46.569 26.491 48 29.438 C50 33.592 50.389 36.432 50 41 C43.06 40.756 39.827 38.933 35 34 C34.67 34.99 34.34 35.98 34 37 C33.693 36.511 33.386 36.022 33.07 35.519 C31.657 33.279 30.235 31.046 28.812 28.812 C28.33 28.044 27.847 27.275 27.35 26.482 C24.592 22.171 21.986 18.252 18 15 C14.256 15.057 14.256 15.057 11 16 C11.516 16.763 12.031 17.526 12.562 18.312 C13.037 19.199 13.511 20.086 14 21 C13.67 21.99 13.34 22.98 13 24 C11.02 21.36 9.04 18.72 7 16 C7.66 16 8.32 16 9 16 C9 15.34 9 14.68 9 14 C9.99 14 10.98 14 12 14 C8.995 9.868 5.528 6.776 1.609 3.551 C1.078 3.039 0.547 2.527 0 2 C0 1.34 0 0.68 0 0 Z " fill="#283144" transform="translate(386,369)"/>
<path d="M0 0 C0.66 0 1.32 0 2 0 C1.67 4.29 1.34 8.58 1 13 C1.949 13.619 2.897 14.238 3.875 14.875 C7 17 7 17 9 19 C9 20.32 9 21.64 9 23 C8.196 22.835 7.391 22.67 6.562 22.5 C5.387 22.335 4.211 22.17 3 22 C2.037 21.811 2.037 21.811 1.055 21.617 C-5.98 20.812 -10.677 24.552 -16.023 28.598 C-19.287 31.232 -22.202 33.882 -25 37 C-25.99 36.67 -26.98 36.34 -28 36 C-27.505 31.545 -27.505 31.545 -27 27 C-33.389 27.355 -33.389 27.355 -39 30 C-39.403 25.892 -39.418 23.662 -37.188 20.125 C-32.649 17.099 -28.354 17.103 -23 17 C-23 17.66 -23 18.32 -23 19 C-24.32 19 -25.64 19 -27 19 C-26.34 19.66 -25.68 20.32 -25 21 C-21.62 21 -19.165 20.125 -16 19 C-18.667 21.667 -21.333 24.333 -24 27 C-23.374 26.495 -22.747 25.989 -22.102 25.469 C-21.284 24.819 -20.467 24.169 -19.625 23.5 C-18.407 22.525 -18.407 22.525 -17.164 21.531 C-15 20 -15 20 -13 20 C-13 19.34 -13 18.68 -13 18 C-15.31 18 -17.62 18 -20 18 C-19.438 15.625 -19.438 15.625 -18 13 C-16.298 12.536 -16.298 12.536 -14.562 12.062 C-10.744 11.37 -10.744 11.37 -9.25 7.938 C-8.837 6.968 -8.425 5.999 -8 5 C-7.01 4.67 -6.02 4.34 -5 4 C-5.33 6.31 -5.66 8.62 -6 11 C-3.813 10.183 -3.813 10.183 -3.184 7.969 C-2.937 7.154 -2.691 6.339 -2.438 5.5 C-1.091 1.091 -1.091 1.091 0 0 Z " fill="#16253E" transform="translate(294,449)"/>
<path d="M0 0 C0.66 0 1.32 0 2 0 C2 5.28 2 10.56 2 16 C2.99 13.36 3.98 10.72 5 8 C5.33 8 5.66 8 6 8 C6 9.238 6 10.475 6 11.75 C6.172 13.974 6.172 13.974 7 16 C8.924 17.454 10.742 18.262 12.992 19.113 C15.27 20.119 16.499 21.013 18 23 C18 24.32 18 25.64 18 27 C17.196 26.835 16.391 26.67 15.562 26.5 C14.387 26.335 13.211 26.17 12 26 C11.312 25.897 10.623 25.794 9.914 25.688 C4.982 25.272 2.312 26.08 -1.625 29.125 C-3.099 30.398 -4.558 31.69 -6 33 C-7.29 34.085 -8.582 35.169 -9.875 36.25 C-12.009 38.085 -14.027 39.992 -16 42 C-18.429 38.356 -18.162 36.288 -18 32 C-19.605 32.141 -21.209 32.288 -22.812 32.438 C-23.706 32.519 -24.599 32.6 -25.52 32.684 C-28.127 32.935 -28.127 32.935 -31 34 C-30.75 29.748 -30.431 27.524 -27.688 24.188 C-23.23 20.559 -20.804 19.736 -15 20 C-15.33 22.31 -15.66 24.62 -16 27 C-14.68 27.33 -13.36 27.66 -12 28 C-12.66 28.99 -13.32 29.98 -14 31 C-13.319 30.34 -12.639 29.68 -11.938 29 C-8.355 26.561 -6.245 26.667 -2 27 C-2.342 24.029 -2.342 24.029 -3 21 C-3.66 20.67 -4.32 20.34 -5 20 C-4.692 19.151 -4.384 18.301 -4.066 17.426 C-2.998 13.992 -2.422 10.747 -1.938 7.188 C-1.106 1.106 -1.106 1.106 0 0 Z " fill="#15243C" transform="translate(338,451)"/>
<path d="M0 0 C0.33 1.32 0.66 2.64 1 4 C1.66 4 2.32 4 3 4 C4.219 5.645 4.219 5.645 5.5 7.812 C6.134 8.874 6.134 8.874 6.781 9.957 C7.385 10.968 7.385 10.968 8 12 C8.99 13.485 8.99 13.485 10 15 C8.02 15 6.04 15 4 15 C3.526 16.072 3.051 17.145 2.562 18.25 C0.639 22.146 -1.763 25.394 -4.438 28.812 C-12.86 39.96 -15.368 49.19 -14 63 C-13.022 69.53 -11.518 75.74 -9.25 81.938 C-7.774 86.021 -8.017 88.798 -9 93 C-10.812 92.938 -10.812 92.938 -13 92 C-20.615 77.989 -23.153 56.838 -19.047 41.422 C-17.593 38.364 -15.972 35.755 -14 33 C-13.349 32.086 -13.349 32.086 -12.685 31.153 C-10.78 28.492 -8.865 25.844 -6.872 23.248 C-1.878 17.041 -1.878 17.041 0.039 9.551 C-0.098 8.812 -0.234 8.074 -0.375 7.312 C-0.926 4.184 -1.042 3.125 0 0 Z " fill="#1A2A41" transform="translate(283,230)"/>
<path d="M0 0 C2.972 1.785 5.426 3.852 7 7 C7.134 9.672 7.043 12.323 7 15 C8.98 15 10.96 15 13 15 C6.575 22.429 -1.667 23.542 -11 25 C-11.289 24.093 -11.577 23.185 -11.875 22.25 C-12.824 19.147 -12.824 19.147 -14.125 17.125 C-15.5 13.786 -15.573 10.516 -15 7 C-11.234 0.813 -7.151 -0.863 0 0 Z " fill="#1E2C41" transform="translate(321,193)"/>
<path d="M0 0 C8.438 1.623 12.292 6.255 17 13 C17.513 13.712 18.026 14.423 18.555 15.156 C21.321 19.219 22.635 21.918 22 27 C17.838 26.448 15.102 23.984 11.938 21.438 C10.785 20.529 9.631 19.621 8.477 18.715 C7.898 18.26 7.32 17.804 6.724 17.335 C3.268 14.658 -0.299 12.135 -3.855 9.594 C-6 8 -6 8 -8 6 C-4.25 4.875 -4.25 4.875 -2 6 C-1.34 4.02 -0.68 2.04 0 0 Z " fill="#F5F6F6" transform="translate(403,364)"/>
<path d="M0 0 C0.66 0 1.32 0 2 0 C2.371 0.66 2.743 1.32 3.125 2 C6.869 7.99 12.396 12.759 18 17 C19.667 18.333 21.333 19.667 23 21 C23.33 18.03 23.66 15.06 24 12 C28.986 14.484 31.99 18.123 35.5 22.312 C36.333 23.29 36.333 23.29 37.184 24.287 C38.277 25.572 39.366 26.861 40.449 28.155 C41.463 29.361 42.486 30.559 43.52 31.748 C47 35.783 47 35.783 47 38 C30.138 36.23 10.554 16.569 0 4 C-0.33 3.01 -0.66 2.02 -1 1 C-0.67 0.67 -0.34 0.34 0 0 Z " fill="#F6F5F5" transform="translate(341,341)"/>
<path d="M0 0 C3.259 2.56 6.098 5.011 8.688 8.25 C14.732 15.481 22.715 20.888 30.312 26.375 C30.887 26.792 31.461 27.209 32.053 27.638 C38.469 32.358 38.469 32.358 46 34 C46 35.32 46 36.64 46 38 C45.113 37.794 44.226 37.587 43.312 37.375 C40.078 36.74 40.078 36.74 37.562 38 C31.373 40.416 24.055 36.937 18 35 C18.99 34.01 19.98 33.02 21 32 C20.01 31.67 19.02 31.34 18 31 C18 30.34 18 29.68 18 29 C18.592 29.205 19.183 29.41 19.793 29.621 C20.583 29.891 21.373 30.16 22.188 30.438 C22.965 30.704 23.742 30.971 24.543 31.246 C27.013 32.004 29.46 32.535 32 33 C30.766 32.182 30.766 32.182 29.508 31.348 C4.18 14.341 4.18 14.341 0.285 1.676 C0.191 1.123 0.097 0.57 0 0 Z " fill="#283144" transform="translate(321,338)"/>
<path d="M0 0 C1.441 0.595 2.878 1.202 4.312 1.812 C5.113 2.149 5.914 2.485 6.738 2.832 C9.094 4.049 10.493 4.815 12 7 C12.536 15.205 10.42 23.233 8 31 C7.601 32.395 7.204 33.791 6.812 35.188 C6.41 36.58 6.41 36.58 6 38 C5.67 38 5.34 38 5 38 C0.431 10.836 0.431 10.836 0 0 Z " fill="#DDDDDF" transform="translate(310,371)"/>
<path d="M0 0 C2.888 2.601 4.769 5.625 6.875 8.875 C14.706 20.46 24.67 29.283 36.199 37.074 C39 39 39 39 41 41 C38.333 41 35.667 41 33 41 C32.224 41.113 31.448 41.227 30.648 41.344 C26.739 40.836 25.039 38.37 22.625 35.5 C21.902 34.671 21.902 34.671 21.165 33.826 C20.203 32.722 19.246 31.613 18.295 30.5 C17.23 29.267 16.126 28.068 15.012 26.879 C8.77 20.207 0 9.467 0 0 Z " fill="#D9DADD" transform="translate(275,321)"/>
<path d="M0 0 C1.083 0.959 1.083 0.959 2.188 1.938 C4.982 3.987 6.617 4.613 10 5 C9.67 3.35 9.34 1.7 9 0 C11.752 2.656 14.143 5.38 16.438 8.438 C19.096 11.896 21.834 14.988 25 18 C26.313 19.332 27.626 20.666 28.938 22 C32.148 25.217 35.453 28.162 39 31 C38.01 31.495 38.01 31.495 37 32 C25.166 26.582 14.856 17.701 5.188 9.125 C4.665 8.673 4.143 8.221 3.605 7.755 C2.168 6.445 2.168 6.445 0 4 C0 2.68 0 1.36 0 0 Z " fill="#F0F0F1" transform="translate(327,341)"/>
<path d="M0 0 C0.66 0.33 1.32 0.66 2 1 C1.913 3.564 1.806 6.125 1.688 8.688 C1.654 9.769 1.654 9.769 1.619 10.873 C1.584 11.579 1.548 12.285 1.512 13.012 C1.486 13.656 1.459 14.3 1.432 14.964 C1 17 1 17 -0.436 19.274 C-2.353 22.616 -2.937 25.853 -3.535 29.602 C-3.659 30.32 -3.784 31.038 -3.911 31.778 C-4.305 34.059 -4.685 36.342 -5.062 38.625 C-5.445 40.915 -5.83 43.205 -6.224 45.493 C-6.469 46.913 -6.706 48.335 -6.936 49.757 C-7.513 53.13 -8.067 55.101 -10 58 C-11.574 56.426 -11.151 54.879 -11.156 52.695 C-11.096 46.683 -10.34 40.821 -9.5 34.875 C-9.357 33.823 -9.214 32.771 -9.066 31.688 C-8.717 29.124 -8.361 26.562 -8 24 C-8.66 24 -9.32 24 -10 24 C-9.67 22.02 -9.34 20.04 -9 18 C-6.69 18 -4.38 18 -2 18 C-2.023 17.036 -2.046 16.072 -2.07 15.078 C-2.097 13.183 -2.097 13.183 -2.125 11.25 C-2.148 9.997 -2.171 8.744 -2.195 7.453 C-2.015 4.272 -1.69 2.635 0 0 Z " fill="#182840" transform="translate(354,397)"/>
<path d="M0 0 C4.895 4.021 7.589 9.488 8.32 15.738 C8.371 18.227 8.4 20.542 8 23 C6 25 6 25 2.875 25.125 C1.452 25.063 1.452 25.063 0 25 C0.289 25.485 0.577 25.969 0.875 26.469 C3.718 31.601 4.607 35.137 4 41 C3.34 41.66 2.68 42.32 2 43 C1.888 42.441 1.776 41.881 1.66 41.305 C-0 34.554 -3.005 29.45 -6.951 23.824 C-9.253 20.48 -10 19.197 -10 15 C-7.837 16.004 -6.031 16.974 -4.188 18.5 C-1.301 20.479 1.628 21.157 5 22 C3.864 15.17 3.864 15.17 1.375 8.75 C-0.199 5.602 -0.248 3.473 0 0 Z " fill="#1C2B40" transform="translate(431,388)"/>
<path d="M0 0 C0 0.99 0 1.98 0 3 C2.475 3.495 2.475 3.495 5 4 C4.34 4.33 3.68 4.66 3 5 C3 5.66 3 6.32 3 7 C7.29 7.66 11.58 8.32 16 9 C16 9.33 16 9.66 16 10 C14.375 10.028 12.75 10.047 11.125 10.062 C9.768 10.08 9.768 10.08 8.383 10.098 C5.68 10.02 3.089 9.821 0.406 9.531 C-5.595 8.896 -11.596 8.661 -17.625 8.438 C-18.725 8.394 -19.824 8.351 -20.957 8.307 C-23.638 8.202 -26.319 8.1 -29 8 C-22.431 0.896 -9.274 -0.29 0 0 Z " fill="#465269" transform="translate(274,204)"/>
<path d="M0 0 C3.875 1.75 3.875 1.75 5 4 C4.219 6.169 3.329 8.299 2.395 10.406 C2.114 11.046 1.834 11.685 1.545 12.344 C0.641 14.399 -0.273 16.45 -1.188 18.5 C-2.371 21.176 -3.551 23.854 -4.73 26.531 C-5.158 27.499 -5.158 27.499 -5.594 28.486 C-7.852 33.611 -9.98 38.778 -12 44 C-12.66 44 -13.32 44 -14 44 C-13.979 43.051 -13.959 42.103 -13.938 41.125 C-13.774 38.093 -13.774 38.093 -15 36 C-14.06 33.33 -14.06 33.33 -12.578 29.961 C-12.317 29.361 -12.057 28.762 -11.788 28.144 C-10.949 26.218 -10.1 24.296 -9.25 22.375 C-8.148 19.863 -7.05 17.35 -5.953 14.836 C-5.437 13.654 -4.921 12.471 -4.389 11.253 C-2.803 7.538 -1.36 3.803 0 0 Z " fill="#192B44" transform="translate(302,416)"/>
<path d="M0 0 C2.797 2.681 5.098 5.436 7.375 8.562 C14.434 17.498 24.207 24.32 34 30 C32 31 32 31 28.797 30.031 C27.444 29.531 26.095 29.02 24.75 28.5 C24.044 28.232 23.337 27.963 22.609 27.687 C15.498 24.92 8.744 21.562 2 18 C2 17.01 2 16.02 2 15 C3.32 14.67 4.64 14.34 6 14 C4.96 10.967 3.94 8.928 1.875 6.438 C0 4 0 4 0 0 Z " fill="#EAEAEB" transform="translate(322,342)"/>
<path d="M0 0 C2.494 1.204 4.681 2.454 7 4 C9.5 4.417 9.5 4.417 12 4 C13.65 2.533 13.65 2.533 15 1 C15.983 2.602 16.961 4.207 17.938 5.812 C18.483 6.706 19.028 7.599 19.59 8.52 C22.029 12.811 22.092 16.132 22 21 C16.576 20.696 14.005 17.569 10.438 13.875 C9.874 13.318 9.31 12.761 8.729 12.188 C5.02 8.423 2.439 4.687 0 0 Z " fill="#F0F1F2" transform="translate(414,389)"/>
<path d="M0 0 C0.688 0.597 0.688 0.597 1.391 1.207 C4.523 3.911 7.639 6.58 11 9 C11 8.01 11 7.02 11 6 C13.867 7.285 15.976 8.571 18 11 C18 11.66 18 12.32 18 13 C17.01 13.33 16.02 13.66 15 14 C15.66 14.33 16.32 14.66 17 15 C17.961 17.882 18.106 19.699 18.062 22.688 C18.053 23.496 18.044 24.304 18.035 25.137 C18.024 25.752 18.012 26.366 18 27 C17.67 27 17.34 27 17 27 C16.907 25.608 16.907 25.608 16.812 24.188 C16.31 20.824 16.31 20.824 13.5 19.125 C11.305 17.932 11.305 17.932 10 18 C9.67 20.97 9.34 23.94 9 27 C7.285 23.57 6.157 20.524 5.062 16.875 C4.546 15.164 4.546 15.164 4.02 13.418 C3.683 12.29 3.347 11.162 3 10 C2.694 8.986 2.389 7.971 2.074 6.926 C1.38 4.618 0.688 2.31 0 0 Z " fill="#F0F1F3" transform="translate(293,355)"/>
<path d="M0 0 C1.093 0.371 2.186 0.743 3.312 1.125 C4.509 1.166 5.705 1.207 6.938 1.25 C10.312 2.125 10.312 2.125 11.645 3.824 C13.602 7.565 14.312 9.811 14.312 14.125 C7.472 13.996 3.508 11.686 -2.074 7.816 C-4.56 6.207 -6.908 5.122 -9.688 4.125 C-9.688 3.465 -9.688 2.805 -9.688 2.125 C-8.038 2.125 -6.387 2.125 -4.688 2.125 C-4.688 1.465 -4.688 0.805 -4.688 0.125 C-2.688 -0.875 -2.688 -0.875 0 0 Z " fill="#F1F2F3" transform="translate(401.6875,348.875)"/>
<path d="M0 0 C8.772 -0.319 17.318 0.884 26 2 C26 2.33 26 2.66 26 3 C29.3 3.66 32.6 4.32 36 5 C35 8 35 8 32 10 C24.784 9.743 18.274 7.283 11.5 4.938 C10.391 4.56 9.283 4.183 8.141 3.795 C5.425 2.87 2.711 1.938 0 1 C0 0.67 0 0.34 0 0 Z " fill="#3A4660" transform="translate(260,212)"/>
<path d="M0 0 C1.149 3.939 1.526 7.936 2 12 C0.907 12.103 -0.186 12.206 -1.312 12.312 C-4.985 12.997 -5.752 13.279 -8 16 C-8.66 16 -9.32 16 -10 16 C-9.67 15.01 -9.34 14.02 -9 13 C-10.65 13 -12.3 13 -14 13 C-13.34 12.67 -12.68 12.34 -12 12 C-12.33 11.01 -12.66 10.02 -13 9 C-12.062 6.812 -12.062 6.812 -11 5 C-11.99 4.67 -12.98 4.34 -14 4 C-13.073 3.795 -12.146 3.59 -11.191 3.379 C-9.994 3.109 -8.796 2.84 -7.562 2.562 C-6.368 2.296 -5.173 2.029 -3.941 1.754 C-1.13 1.299 -1.13 1.299 0 0 Z " fill="#1E2D44" transform="translate(334,466)"/>
<path d="M0 0 C0.33 0 0.66 0 1 0 C0.858 2.354 0.711 4.708 0.562 7.062 C0.481 8.373 0.4 9.684 0.316 11.035 C0.113 13.584 -0.163 16.129 -0.527 18.66 C-0.946 21.617 -1.134 24.394 -1.125 27.375 C-1.129 28.655 -1.129 28.655 -1.133 29.961 C-1.225 31.994 -1.225 31.994 0 33 C0.072 35.02 0.084 37.042 0.062 39.062 C0.053 40.167 0.044 41.272 0.035 42.41 C0.024 43.265 0.012 44.119 0 45 C-0.33 45 -0.66 45 -1 45 C-1.33 43.35 -1.66 41.7 -2 40 C-2.99 41.98 -3.98 43.96 -5 46 C-5.33 46 -5.66 46 -6 46 C-5.67 40.39 -5.34 34.78 -5 29 C-5.66 29 -6.32 29 -7 29 C-7 26.36 -7 23.72 -7 21 C-6.67 21 -6.34 21 -6 21 C-5.67 22.98 -5.34 24.96 -5 27 C-4.884 26.218 -4.768 25.435 -4.649 24.629 C-4.124 21.106 -3.593 17.584 -3.062 14.062 C-2.88 12.831 -2.698 11.599 -2.51 10.33 C-2.333 9.16 -2.155 7.99 -1.973 6.785 C-1.729 5.159 -1.729 5.159 -1.481 3.5 C-1 1 -1 1 0 0 Z " fill="#26374F" transform="translate(345,422)"/>
<path d="M0 0 C0.784 0.041 1.567 0.083 2.375 0.125 C2.375 1.775 2.375 3.425 2.375 5.125 C3.365 5.125 4.355 5.125 5.375 5.125 C5.375 4.465 5.375 3.805 5.375 3.125 C6.035 3.125 6.695 3.125 7.375 3.125 C7.668 9.18 7.668 9.18 7.375 11.125 C3.671 13.594 1.754 13.594 -2.625 13.125 C-4.625 11.562 -4.625 11.562 -5.625 9.125 C-5.166 0.246 -5.166 0.246 0 0 Z " fill="#152D47" transform="translate(315.625,197.875)"/>
<path d="M0 0 C0.33 0 0.66 0 1 0 C0.956 0.62 0.912 1.24 0.867 1.879 C0.893 10.721 4.832 15.948 9.848 22.812 C12 26 12 26 12 29 C11.01 29 10.02 29 9 29 C8.67 29.66 8.34 30.32 8 31 C7.576 30.238 7.152 29.476 6.715 28.691 C2.928 22.025 -1.1 15.898 -6 10 C-2.125 7 -2.125 7 -1 7 C-0.67 4.69 -0.34 2.38 0 0 Z " fill="#1A2A40" transform="translate(418,358)"/>
<path d="M0 0 C2.75 2.74 5.486 5.493 8.199 8.27 C14.203 14.383 20.166 20.26 27.012 25.449 C28.825 26.863 30.417 28.337 32 30 C30.02 30.99 30.02 30.99 28 32 C25.936 30.105 23.874 28.209 21.812 26.312 C21.234 25.782 20.656 25.252 20.061 24.705 C3.921 9.842 3.921 9.842 0 2 C0 1.34 0 0.68 0 0 Z " fill="#252E3F" transform="translate(337,340)"/>
<path d="M0 0 C0.949 0.825 1.897 1.65 2.875 2.5 C15.505 13.899 15.505 13.899 31 20 C31 20.66 31 21.32 31 22 C31.66 22.33 32.32 22.66 33 23 C33 23.99 33 24.98 33 26 C19.107 23.599 8.303 12.84 0 2 C0 1.34 0 0.68 0 0 Z " fill="#293247" transform="translate(375,325)"/>
<path d="M0 0 C3.101 0.013 6 0.179 9 1 C11.562 4.062 11.562 4.062 13 7 C12.67 7.66 12.34 8.32 12 9 C11.01 9 10.02 9 9 9 C9 11.64 9 14.28 9 17 C9.66 17 10.32 17 11 17 C11.33 17.99 11.66 18.98 12 20 C11.34 20.66 10.68 21.32 10 22 C8.323 18.901 6.66 15.795 5 12.688 C4.523 11.806 4.046 10.925 3.555 10.018 C3.104 9.17 2.652 8.322 2.188 7.449 C1.769 6.669 1.35 5.889 0.918 5.085 C0 3 0 3 0 0 Z " fill="#EBECED" transform="translate(369,381)"/>
<path d="M0 0 C2.64 0.33 5.28 0.66 8 1 C7.34 2.32 6.68 3.64 6 5 C7.32 4.34 8.64 3.68 10 3 C10 3.99 10 4.98 10 6 C10.99 6.33 11.98 6.66 13 7 C10 10 7 13 4 16 C1.571 12.356 1.838 10.288 2 6 C-0.97 6 -3.94 6 -7 6 C-7 5.67 -7 5.34 -7 5 C-5.824 4.876 -5.824 4.876 -4.625 4.75 C-1.853 4.272 -1.853 4.272 -0.688 1.938 C-0.461 1.298 -0.234 0.659 0 0 Z " fill="#1F3048" transform="translate(318,477)"/>
<path d="M0 0 C0.66 0 1.32 0 2 0 C4.95 12.416 5.362 24.268 5 37 C4.34 37 3.68 37 3 37 C3 30.07 3 23.14 3 16 C2.01 16 1.02 16 0 16 C-1.417 10.731 -2.487 6.409 -1 1 C-0.67 0.67 -0.34 0.34 0 0 Z " fill="#182A42" transform="translate(368,200)"/>
<path d="M0 0 C3.63 1.21 4.262 2.398 6.5 5.438 C10.415 10.492 14.787 14.658 19.582 18.871 C21.463 20.528 23.258 22.2 25 24 C23.02 24.66 21.04 25.32 19 26 C3.125 9.374 3.125 9.374 0 0 Z " fill="#232D40" transform="translate(357,338)"/>
<path d="M0 0 C6.093 0.49 10.035 1.371 14.125 6.125 C15.108 7.398 16.076 8.684 17 10 C15.333 11.667 13.667 13.333 12 15 C2.878 6.077 2.878 6.077 0 2 C0 1.34 0 0.68 0 0 Z " fill="#EBECED" transform="translate(382,382)"/>
<path d="M0 0 C2.938 1.438 2.938 1.438 5 4 C5.71 7.147 5.71 9.853 5 13 C2.31 16.343 0.659 16.896 -3.562 17.562 C-7 17 -7 17 -9.438 15 C-11.598 10.852 -11.591 8.655 -11 4 C-8.155 -0.551 -5.117 -0.718 0 0 Z M-8.875 3.562 C-10.473 7.024 -9.878 9.355 -9 13 C-7.064 15.372 -7.064 15.372 -3.562 15.25 C0.104 15.288 0.104 15.288 3 13 C3.363 11.023 3.363 11.023 3.188 8.875 C3.126 7.596 3.064 6.317 3 5 C2.34 5 1.68 5 1 5 C1 5.66 1 6.32 1 7 C0.01 7 -0.98 7 -2 7 C-2 5.35 -2 3.7 -2 2 C-5.057 1.67 -6.464 1.553 -8.875 3.562 Z " fill="#4D85A3" transform="translate(320,196)"/>
<path d="M0 0 C0.66 0.99 1.32 1.98 2 3 C4.584 3.25 4.584 3.25 7 3 C5.802 6.593 4.532 7.421 1.562 9.688 C0.759 10.31 -0.044 10.933 -0.871 11.574 C-3 13 -3 13 -5 13 C-3.607 9.633 -2.021 8.014 1 6 C-0.64 6.773 -0.64 6.773 -2.312 7.562 C-6 9 -6 9 -9 8 C-9 7.01 -9 6.02 -9 5 C-8.34 4.67 -7.68 4.34 -7 4 C-6.01 4.33 -5.02 4.66 -4 5 C-4 4.34 -4 3.68 -4 3 C-7.3 3.33 -10.6 3.66 -14 4 C-9.103 0.327 -6.117 -0.532 0 0 Z " fill="#1A2B43" transform="translate(275,463)"/>
<path d="M0 0 C3.831 2.168 5.476 3.358 6.816 7.559 C7.319 10.038 7.717 12.487 8 15 C6.02 15.99 6.02 15.99 4 17 C3.974 16.313 3.948 15.626 3.922 14.918 C3.865 14.017 3.808 13.116 3.75 12.188 C3.704 11.294 3.657 10.401 3.609 9.48 C3.2 6.884 3.2 6.884 1.176 5.191 C-1.953 3.478 -4.493 3.745 -8 4 C-8.99 4.33 -9.98 4.66 -11 5 C-11.33 7.64 -11.66 10.28 -12 13 C-12.33 13 -12.66 13 -13 13 C-13.812 9.812 -13.812 9.812 -14 6 C-9.74 0.704 -6.753 -0.675 0 0 Z " fill="#26384F" transform="translate(321,193)"/>
<path d="M0 0 C0.33 0 0.66 0 1 0 C1.345 13.666 1.345 13.666 -0.062 18.438 C-1.101 22.382 -0.624 25.021 0 29 C-0.66 29.99 -1.32 30.98 -2 32 C-2.99 32 -3.98 32 -5 32 C-5 33.65 -5 35.3 -5 37 C-5.66 36.67 -6.32 36.34 -7 36 C-6.537 31.215 -5.978 26.482 -5.125 21.75 C-4.983 20.961 -4.841 20.172 -4.695 19.359 C-4 17 -4 17 -2.473 14.598 C-0.716 11.499 -0.507 9.225 -0.312 5.688 C-0.247 4.619 -0.181 3.55 -0.113 2.449 C-0.076 1.641 -0.039 0.833 0 0 Z " fill="#46778E" transform="translate(355,402)"/>
<path d="M0 0 C0.33 0 0.66 0 1 0 C1.054 3.042 1.094 6.083 1.125 9.125 C1.142 9.981 1.159 10.837 1.176 11.719 C1.213 16.566 0.896 20.447 -1 25 C-1.66 25 -2.32 25 -3 25 C-4.206 21.381 -4.108 18.075 -4.062 14.312 C-4.058 13.611 -4.053 12.909 -4.049 12.186 C-4.037 10.457 -4.019 8.728 -4 7 C-3.34 7 -2.68 7 -2 7 C-1.856 6.402 -1.711 5.804 -1.562 5.188 C-1.113 3.438 -0.571 1.713 0 0 Z " fill="#17253B" transform="translate(267,275)"/>
<path d="M0 0 C0.33 1.32 0.66 2.64 1 4 C1.928 3.484 2.856 2.969 3.812 2.438 C7 1 7 1 10 2 C12.323 4.581 13 5.452 13 9 C7.486 9.337 3.996 8.441 -0.938 6 C-2.081 5.443 -3.224 4.886 -4.402 4.312 C-5.26 3.879 -6.117 3.446 -7 3 C-5.188 1.938 -5.188 1.938 -3 1 C-2.01 1.33 -1.02 1.66 0 2 C0 1.34 0 0.68 0 0 Z " fill="#EEEEF0" transform="translate(403,421)"/>
<path d="M0 0 C0.66 0.33 1.32 0.66 2 1 C2.562 3.039 2.562 3.039 3 5.625 C3.766 9.856 4.749 13.889 6 18 C5.01 18.33 4.02 18.66 3 19 C2.67 19.99 2.34 20.98 2 22 C1.34 20.68 0.68 19.36 0 18 C-0.66 18.33 -1.32 18.66 -2 19 C-1.86 16.02 -1.713 13.042 -1.562 10.062 C-1.523 9.212 -1.484 8.362 -1.443 7.486 C-1.401 6.677 -1.36 5.869 -1.316 5.035 C-1.28 4.286 -1.243 3.537 -1.205 2.766 C-1 1 -1 1 0 0 Z " fill="#3E4858" transform="translate(276,304)"/>
<path d="M0 0 C0.99 0.33 1.98 0.66 3 1 C2.67 1.66 2.34 2.32 2 3 C1.621 8.691 1.99 11.984 5 17 C-0.247 15.524 -4.396 11.992 -8 8 C-8.734 5.773 -8.734 5.773 -9 4 C-8.01 4 -7.02 4 -6 4 C-6 3.34 -6 2.68 -6 2 C-5.34 2 -4.68 2 -4 2 C-3.67 2.99 -3.34 3.98 -3 5 C-2.01 4.67 -1.02 4.34 0 4 C0 2.68 0 1.36 0 0 Z " fill="#E6E8E8" transform="translate(305,197)"/>
<path d="M0 0 C1.083 0.959 1.083 0.959 2.188 1.938 C4.982 3.987 6.617 4.613 10 5 C9.67 3.35 9.34 1.7 9 0 C11.526 2.363 12.888 3.665 14 7 C13.67 7.33 13.34 7.66 13 8 C13.99 9.485 13.99 9.485 15 11 C14.01 11.33 13.02 11.66 12 12 C11.67 12.66 11.34 13.32 11 14 C9.154 12.43 7.324 10.845 5.5 9.25 C4.975 8.807 4.451 8.363 3.91 7.906 C2.406 6.578 2.406 6.578 0 4 C0 2.68 0 1.36 0 0 Z " fill="#F1F2F2" transform="translate(327,341)"/>
<path d="M0 0 C0.33 0 0.66 0 1 0 C1.156 6.131 0.597 11.888 -0.375 17.938 C-0.564 19.23 -0.564 19.23 -0.758 20.549 C-0.887 21.367 -1.016 22.185 -1.148 23.027 C-1.264 23.767 -1.379 24.507 -1.498 25.269 C-1.746 26.126 -1.746 26.126 -2 27 C-2.66 27.33 -3.32 27.66 -4 28 C-4.438 9.99 -4.438 9.99 -2 2 C-1.34 1.34 -0.68 0.68 0 0 Z " fill="#182740" transform="translate(343,422)"/>
<path d="M0 0 C4.11 3.36 7.946 6.603 11 11 C11 11.66 11 12.32 11 13 C5.147 12.55 0.918 9.962 -4 7 C-3.34 6.67 -2.68 6.34 -2 6 C-1.273 4.021 -0.602 2.02 0 0 Z " fill="#ECEDEF" transform="translate(377,366)"/>
<path d="M0 0 C0.33 0.66 0.66 1.32 1 2 C0.219 4.169 -0.671 6.299 -1.605 8.406 C-1.886 9.046 -2.166 9.685 -2.455 10.344 C-3.359 12.399 -4.273 14.45 -5.188 16.5 C-6.371 19.176 -7.551 21.854 -8.73 24.531 C-9.158 25.499 -9.158 25.499 -9.594 26.486 C-11.852 31.611 -13.98 36.778 -16 42 C-16.66 42 -17.32 42 -18 42 C-15.61 34.401 -12.628 27.135 -9.5 19.812 C-9.014 18.663 -8.528 17.514 -8.027 16.33 C-1.89 1.89 -1.89 1.89 0 0 Z " fill="#33425C" transform="translate(306,418)"/>
<path d="M0 0 C0.33 0.66 0.66 1.32 1 2 C1.969 2.103 2.939 2.206 3.938 2.312 C9.142 2.876 13.469 5.529 18 8 C15 9 15 9 13 9 C12.67 10.32 12.34 11.64 12 13 C7.308 9.612 2.97 6.218 -1 2 C-0.67 1.34 -0.34 0.68 0 0 Z " fill="#EAEAEA" transform="translate(311,360)"/>
<path d="M0 0 C0.835 0.371 0.835 0.371 1.688 0.75 C0.697 2.235 0.697 2.235 -0.312 3.75 C-0.339 6.047 -0.339 6.047 0.062 8.438 C0.173 9.246 0.284 10.054 0.398 10.887 C0.494 11.502 0.589 12.116 0.688 12.75 C-3.396 12.007 -7.332 10.921 -11.312 9.75 C-10.322 9.42 -9.332 9.09 -8.312 8.75 C-8.22 7.636 -8.22 7.636 -8.125 6.5 C-6.94 2.488 -4.432 -0.479 0 0 Z " fill="#DDDEE0" transform="translate(351.3125,257.25)"/>
<path d="M0 0 C1.525 0.089 3.047 0.245 4.562 0.438 C5.802 0.59 5.802 0.59 7.066 0.746 C7.704 0.83 8.343 0.914 9 1 C8.691 1.763 8.381 2.526 8.062 3.312 C7.321 5.188 6.638 7.087 6 9 C6.33 9.66 6.66 10.32 7 11 C4.525 10.01 4.525 10.01 2 9 C1.67 10.32 1.34 11.64 1 13 C0.34 12.67 -0.32 12.34 -1 12 C-1.027 10.188 -1.046 8.375 -1.062 6.562 C-1.074 5.553 -1.086 4.544 -1.098 3.504 C-1 1 -1 1 0 0 Z " fill="#162339" transform="translate(283,221)"/>
<path d="M0 0 C0.928 0.536 1.856 1.072 2.812 1.625 C3.447 1.985 4.081 2.344 4.734 2.715 C6.395 3.657 8.051 4.609 9.703 5.566 C11.119 6.369 11.119 6.369 12.562 7.188 C13.895 7.951 13.895 7.951 15.254 8.73 C18.194 10.09 20.797 10.61 24 11 C21.333 12.333 18.667 13.667 16 15 C3.659 6.29 3.659 6.29 0 2 C0 1.34 0 0.68 0 0 Z " fill="#2E3446" transform="translate(393,352)"/>
<path d="M0 0 C0.33 1.32 0.66 2.64 1 4 C1.66 4 2.32 4 3 4 C4.219 5.645 4.219 5.645 5.5 7.812 C5.923 8.52 6.346 9.228 6.781 9.957 C7.385 10.968 7.385 10.968 8 12 C8.99 13.485 8.99 13.485 10 15 C8.02 15 6.04 15 4 15 C3.01 17.475 3.01 17.475 2 20 C0.438 18.5 0.438 18.5 -1 16 C-0.808 13.981 -0.607 11.959 -0.258 9.961 C0.068 7.481 -0.447 5.421 -1 3 C-0.67 2.01 -0.34 1.02 0 0 Z " fill="#243246" transform="translate(283,230)"/>
<path d="M0 0 C0.66 0 1.32 0 2 0 C2.371 0.66 2.743 1.32 3.125 2 C6.901 8.042 12.432 12.636 18 17 C19.685 18.648 21.357 20.31 23 22 C22.34 22.66 21.68 23.32 21 24 C4.536 8.937 4.536 8.937 -1 2 C-0.67 1.34 -0.34 0.68 0 0 Z " fill="#EEEFF1" transform="translate(341,341)"/>
<path d="M0 0 C2.125 1.75 2.125 1.75 4 4 C4.743 4.743 5.485 5.485 6.25 6.25 C6.827 6.827 7.405 7.405 8 8 C5 8 5 8 2 6 C-1.705 5.801 -4.47 5.823 -8 7 C-10.188 6.062 -10.188 6.062 -12 5 C-8.749 0.2 -5.748 -0.587 0 0 Z " fill="#D9D9DA" transform="translate(319,188)"/>
<path d="M0 0 C4.026 3.163 7.357 6.419 10.613 10.367 C12.084 12.159 12.084 12.159 14.312 14.188 C16.134 16.144 16.626 17.384 17 20 C14 20 14 20 11.914 18.094 C0 4.594 0 4.594 0 0 Z " fill="#2E3748" transform="translate(321,338)"/>
<path d="M0 0 C2.726 0.373 3.808 0.792 5.703 2.848 C6.214 3.579 6.724 4.309 7.25 5.062 C7.771 5.796 8.292 6.529 8.828 7.285 C9.215 7.851 9.602 8.417 10 9 C7.708 8.913 5.416 8.805 3.125 8.688 C1.849 8.629 0.573 8.571 -0.742 8.512 C-2.355 8.258 -2.355 8.258 -4 8 C-4.66 7.01 -5.32 6.02 -6 5 C-5.381 4.732 -4.762 4.464 -4.125 4.188 C-1.7 3.044 -1.7 3.044 0 0 Z " fill="#4B5870" transform="translate(290,207)"/>
<path d="M0 0 C12.713 -0.381 24.527 0.497 37 3 C37 3.33 37 3.66 37 4 C29.283 4.12 21.687 3.795 14 3.125 C12.978 3.046 11.956 2.968 10.902 2.887 C9.435 2.761 9.435 2.761 7.938 2.633 C7.06 2.559 6.182 2.486 5.277 2.411 C3 2 3 2 0 0 Z " fill="#A7AFC1" transform="translate(253,210)"/>
<path d="M0 0 C0.969 0.846 1.939 1.691 2.938 2.562 C7.172 6.198 11.572 9.606 16 13 C14.188 13.625 14.188 13.625 12 14 C11.01 13.34 10.02 12.68 9 12 C9 11.34 9 10.68 9 10 C8.278 10.268 7.556 10.536 6.812 10.812 C4 11 4 11 1.125 8.938 C-1 6 -1 6 -0.812 2.688 C-0.544 1.801 -0.276 0.914 0 0 Z " fill="#CED1D5" transform="translate(291,342)"/>
<path d="M0 0 C3.707 0.553 5.142 1.899 7.5 4.75 C8.099 5.467 8.699 6.183 9.316 6.922 C9.872 7.608 10.428 8.293 11 9 C11.804 9.99 12.609 10.98 13.438 12 C14.211 12.99 14.211 12.99 15 14 C13.35 14.33 11.7 14.66 10 15 C8.324 13.07 6.659 11.132 5 9.188 C4.523 8.64 4.046 8.093 3.555 7.529 C0 3.34 0 3.34 0 0 Z " fill="#2F3749" transform="translate(382,386)"/>
<path d="M0 0 C3.015 2.906 5.656 5.964 8.25 9.25 C8.956 10.142 9.663 11.034 10.391 11.953 C10.922 12.629 11.453 13.304 12 14 C10.515 16.475 10.515 16.475 9 19 C6.98 18.398 4.979 17.727 3 17 C2.67 16.34 2.34 15.68 2 15 C3.32 14.67 4.64 14.34 6 14 C4.96 10.967 3.94 8.928 1.875 6.438 C0 4 0 4 0 0 Z " fill="#F2F2F3" transform="translate(322,342)"/>
<path d="M0 0 C3.466 0.575 5.007 1.693 7.375 4.25 C10.417 7.437 13.569 10.239 17 13 C16.01 13.495 16.01 13.495 15 14 C12.285 12.637 12.285 12.637 9.062 10.688 C8.002 10.052 6.941 9.416 5.848 8.762 C3.877 7.542 1.928 6.286 0 5 C-0.188 2.375 -0.188 2.375 0 0 Z " fill="#E6E7E9" transform="translate(349,359)"/>
<path d="M0 0 C0.436 0.375 0.871 0.75 1.32 1.137 C5.186 4.459 9.077 7.746 13 11 C12.34 11.66 11.68 12.32 11 13 C5.762 11.753 1.987 9.508 -1 5 C-0.875 2.125 -0.875 2.125 0 0 Z " fill="#1F293F" transform="translate(289,334)"/>
<path d="M0 0 C1.697 1.475 2.872 2.741 3.871 4.766 C4.072 8.247 2.579 10.655 1.062 13.75 C0.497 14.92 -0.069 16.091 -0.652 17.297 C-1.097 18.189 -1.542 19.081 -2 20 C-4 17 -4 17 -3.812 14.5 C-2.681 9.627 -1.362 4.813 0 0 Z " fill="#24344A" transform="translate(320,391)"/>
<path d="M0 0 C0.66 0 1.32 0 2 0 C4.034 3.73 5 5.669 5 10 C0.944 9.532 -2.466 9.12 -6 7 C-5.67 6.01 -5.34 5.02 -5 4 C-4.01 4.33 -3.02 4.66 -2 5 C-1.34 3.35 -0.68 1.7 0 0 Z " fill="#ECECEF" transform="translate(401,335)"/>
<path d="M0 0 C0.33 0 0.66 0 1 0 C0.581 7.779 0.038 15.519 -0.938 23.25 C-1.091 24.472 -1.244 25.694 -1.402 26.953 C-2 30 -2 30 -4 33 C-4.208 25.68 -3.607 18.678 -2.562 11.438 C-2.428 10.442 -2.293 9.446 -2.154 8.42 C-1.135 1.135 -1.135 1.135 0 0 Z " fill="#34405A" transform="translate(345,422)"/>
<path d="M0 0 C2.97 0.495 2.97 0.495 6 1 C4.935 3.485 4.024 4.978 2 6.812 C-0.585 9.64 -1.149 12.313 -2 16 C-2.33 16 -2.66 16 -3 16 C-3 13.69 -3 11.38 -3 9 C-3.66 8.67 -4.32 8.34 -5 8 C-4.67 6.35 -4.34 4.7 -4 3 C-3.01 3 -2.02 3 -1 3 C-0.67 2.01 -0.34 1.02 0 0 Z " fill="#EEEFF0" transform="translate(357,378)"/>
<path d="M0 0 C2 1.625 2 1.625 4 4 C4.25 7.25 4.25 7.25 4 10 C0.907 9.391 -1.196 8.401 -3.75 6.562 C-4.364 6.131 -4.977 5.699 -5.609 5.254 C-6.298 4.633 -6.298 4.633 -7 4 C-7 3.34 -7 2.68 -7 2 C-6.031 1.856 -5.061 1.711 -4.062 1.562 C-1.135 1.324 -1.135 1.324 0 0 Z " fill="#E8E9EB" transform="translate(421,381)"/>
<path d="M0 0 C2.072 3.108 3.284 6.019 4.625 9.5 C5.071 10.645 5.517 11.789 5.977 12.969 C7 16 7 16 7 19 C6.01 19 5.02 19 4 19 C2.042 16.063 1.439 14.426 1 11 C1.33 10.34 1.66 9.68 2 9 C1.34 9 0.68 9 0 9 C-0.66 6.69 -1.32 4.38 -2 2 C-1.34 2 -0.68 2 0 2 C0 1.34 0 0.68 0 0 Z " fill="#293347" transform="translate(293,357)"/>
<path d="M0 0 C0.99 1.32 1.98 2.64 3 4 C0.697 9.696 0.697 9.696 -2.438 11.062 C-5.577 10.986 -6.732 10.1 -9 8 C-3.857 2.429 -3.857 2.429 0 2 C0 1.34 0 0.68 0 0 Z " fill="#F5F5F6" transform="translate(399,330)"/>
<path d="M0 0 C3.375 0.25 3.375 0.25 7 1 C8.438 3.062 8.438 3.062 9 5 C8.01 5 7.02 5 6 5 C6 5.66 6 6.32 6 7 C2.7 6.34 -0.6 5.68 -4 5 C-3.67 4.01 -3.34 3.02 -3 2 C-2.01 2 -1.02 2 0 2 C0 1.34 0 0.68 0 0 Z " fill="#1B253C" transform="translate(389,378)"/>
<path d="M0 0 C7.745 0.745 7.745 0.745 11 4 C11 4.66 11 5.32 11 6 C10.34 6 9.68 6 9 6 C9 6.66 9 7.32 9 8 C4.167 7.586 2.173 5.536 -1 2 C-0.67 1.34 -0.34 0.68 0 0 Z " fill="#1C273E" transform="translate(310,354)"/>
<path d="M0 0 C5.014 0.152 7.334 2.927 10.645 6.309 C12 8 12 8 12 10 C11.34 10 10.68 10 10 10 C9.67 10.66 9.34 11.32 9 12 C1.333 4.886 1.333 4.886 0 0 Z " fill="#1F293E" transform="translate(393,400)"/>
<path d="M0 0 C1.938 0.312 1.938 0.312 4 1 C4.33 1.99 4.66 2.98 5 4 C4.01 4.33 3.02 4.66 2 5 C2.66 5.33 3.32 5.66 4 6 C4.961 8.882 5.106 10.699 5.062 13.688 C5.053 14.496 5.044 15.304 5.035 16.137 C5.024 16.752 5.012 17.366 5 18 C4.67 18 4.34 18 4 18 C3.938 17.072 3.876 16.144 3.812 15.188 C3.345 11.801 3.345 11.801 0.438 10.438 C-0.367 9.963 -1.171 9.489 -2 9 C-2.438 6.438 -2.438 6.438 -2 4 C-1.34 3.34 -0.68 2.68 0 2 C0 1.34 0 0.68 0 0 Z " fill="#EAEAEB" transform="translate(306,364)"/>
<path d="M0 0 C0.949 0.825 1.897 1.65 2.875 2.5 C6.788 5.861 10.816 9.068 14.863 12.266 C17 14 17 14 19 16 C16.922 16.887 16.922 16.887 14 17 C11.406 15.279 9.374 13.073 7.25 10.812 C6.661 10.221 6.072 9.63 5.465 9.021 C2.6 6.067 0.755 4.142 0 0 Z " fill="#333C4A" transform="translate(375,325)"/>
<path d="M0 0 C4.345 0.608 8.676 1.262 13 2 C13 2.66 13 3.32 13 4 C13.66 4.33 14.32 4.66 15 5 C14.34 6.32 13.68 7.64 13 9 C8.71 6.69 4.42 4.38 0 2 C0 1.34 0 0.68 0 0 Z " fill="#293244" transform="translate(340,267)"/>
<path d="M0 0 C5 5 10 10 15 15 C14.34 16.32 13.68 17.64 13 19 C11.391 17.108 9.788 15.211 8.188 13.312 C7.736 12.782 7.284 12.252 6.818 11.705 C0 3.593 0 3.593 0 0 Z " fill="#343C49" transform="translate(337,340)"/>
<path d="M0 0 C1.755 0.908 3.504 1.827 5.25 2.75 C6.225 3.26 7.199 3.771 8.203 4.297 C10.937 5.962 12.926 7.571 15 10 C15 10.66 15 11.32 15 12 C10.334 11.521 8.086 9.709 4.688 6.562 C3.804 5.759 2.921 4.956 2.012 4.129 C0 2 0 2 0 0 Z " fill="#E2E3E7" transform="translate(386,369)"/>
<path d="M0 0 C1.938 0.562 1.938 0.562 4 2 C4.75 5.625 4.75 5.625 5 9 C4.34 9 3.68 9 3 9 C3.66 11.31 4.32 13.62 5 16 C5.66 16 6.32 16 7 16 C6.34 17.32 5.68 18.64 5 20 C-0.74 6.367 -0.74 6.367 0 0 Z " fill="#17253B" transform="translate(288,350)"/>
<path d="M0 0 C0.99 0 1.98 0 3 0 C3 0.66 3 1.32 3 2 C3.66 2 4.32 2 5 2 C5 2.66 5 3.32 5 4 C5.536 4.227 6.072 4.454 6.625 4.688 C9.825 6.456 12.29 8.537 15 11 C15 11.66 15 12.32 15 13 C15.66 13.33 16.32 13.66 17 14 C16.01 14.33 15.02 14.66 14 15 C12.035 13.257 10.078 11.506 8.125 9.75 C7.569 9.259 7.014 8.768 6.441 8.262 C3.642 5.732 1.345 3.575 0 0 Z " fill="#EAEBEB" transform="translate(288,331)"/>
<path d="M0 0 C1.052 0.474 2.104 0.949 3.188 1.438 C5.488 2.439 7.317 3.056 9.812 3.5 C12 4 12 4 14 7 C11.211 8.394 9.079 8.257 6 8 C5.34 7.01 4.68 6.02 4 5 C1.437 4.27 1.437 4.27 -1 4 C-0.67 2.68 -0.34 1.36 0 0 Z " fill="#222E45" transform="translate(289,203)"/>
<path d="M0 0 C4.95 1.98 9.9 3.96 15 6 C14.67 7.65 14.34 9.3 14 11 C13.34 11 12.68 11 12 11 C12 10.01 12 9.02 12 8 C7.71 7.01 3.42 6.02 -1 5 C-0.67 3.35 -0.34 1.7 0 0 Z " fill="#26354B" transform="translate(339,172)"/>
<path d="M0 0 C0 0.33 0 0.66 0 1 C-4.455 1.495 -4.455 1.495 -9 2 C-9 2.33 -9 2.66 -9 3 C-12.63 3 -16.26 3 -20 3 C-14.364 -2.636 -7.174 -2.807 0 0 Z " fill="#5B667D" transform="translate(265,209)"/>
<path d="M0 0 C0.99 0.33 1.98 0.66 3 1 C2.01 5.62 1.02 10.24 0 15 C0.66 15.33 1.32 15.66 2 16 C1.01 16 0.02 16 -1 16 C-3 11.875 -3.415 8.566 -3 4 C-1.5 1.562 -1.5 1.562 0 0 Z " fill="#2A384C" transform="translate(287,182)"/>
<path d="M0 0 C2.938 -0.054 5.875 -0.094 8.812 -0.125 C10.063 -0.15 10.063 -0.15 11.338 -0.176 C12.14 -0.182 12.943 -0.189 13.77 -0.195 C14.508 -0.206 15.246 -0.216 16.007 -0.227 C18 0 18 0 21 2 C20.01 2.495 20.01 2.495 19 3 C21.475 3.495 21.475 3.495 24 4 C24 4.33 24 4.66 24 5 C21.69 5 19.38 5 17 5 C17 4.34 17 3.68 17 3 C16.024 2.951 15.048 2.902 14.043 2.852 C12.771 2.777 11.498 2.702 10.188 2.625 C8.923 2.555 7.658 2.486 6.355 2.414 C3 2 3 2 0 0 Z " fill="#CFD2D7" transform="translate(314,172)"/>
<path d="M0 0 C-1.198 3.593 -2.468 4.421 -5.438 6.688 C-6.241 7.31 -7.044 7.933 -7.871 8.574 C-10 10 -10 10 -12 10 C-10.607 6.633 -9.021 5.014 -6 3 C-7.093 3.516 -8.186 4.031 -9.312 4.562 C-13 6 -13 6 -16 5 C-14.277 4.155 -12.546 3.324 -10.812 2.5 C-9.368 1.804 -9.368 1.804 -7.895 1.094 C-5.011 0.004 -3.046 -0.223 0 0 Z " fill="#BCC2CA" transform="translate(282,466)"/>
<path d="M0 0 C2.31 0 4.62 0 7 0 C6.875 1.875 6.875 1.875 6 4 C4.004 4.679 2.004 5.346 0 6 C-1.134 8.017 -1.134 8.017 -2 10 C-3.32 10.33 -4.64 10.66 -6 11 C-4.02 7.37 -2.04 3.74 0 0 Z " fill="#EFF0F1" transform="translate(287,244)"/>
<path d="M0 0 C-1.589 4.289 -4.431 6.323 -8 9 C-8.66 9 -9.32 9 -10 9 C-9.67 8.01 -9.34 7.02 -9 6 C-10.65 6 -12.3 6 -14 6 C-9.595 2.442 -5.755 0 0 0 Z " fill="#B3B6BE" transform="translate(334,473)"/>
<path d="M0 0 C3.713 1.238 4.628 2.744 7 5.812 C7.681 6.685 8.361 7.558 9.062 8.457 C10.719 10.631 12.366 12.81 14 15 C12.68 15.33 11.36 15.66 10 16 C8.516 13.899 7.038 11.794 5.562 9.688 C5.142 9.093 4.721 8.498 4.287 7.885 C2.462 5.271 1.014 3.042 0 0 Z " fill="#343F4D" transform="translate(357,338)"/>
<path d="M0 0 C-1.688 2.5 -1.688 2.5 -4 5 C-6.562 5.312 -6.562 5.312 -9 5 C-9.99 5 -10.98 5 -12 5 C-11.67 3.35 -11.34 1.7 -11 0 C-3.571 -1.286 -3.571 -1.286 0 0 Z " fill="#F5F6F6" transform="translate(358,253)"/>
<path d="M0 0 C3.688 0.875 3.688 0.875 7 2 C7.33 3.32 7.66 4.64 8 6 C7.113 5.794 6.226 5.587 5.312 5.375 C1.7 4.966 0.265 5.625 -3 7 C-5.312 6.625 -5.312 6.625 -7 6 C-6.01 6 -5.02 6 -4 6 C-3.897 5.381 -3.794 4.762 -3.688 4.125 C-3 2 -3 2 0 0 Z " fill="#303A4D" transform="translate(359,370)"/>
<path d="M0 0 C2.875 -0.188 2.875 -0.188 6 0 C6.66 0.99 7.32 1.98 8 3 C6.02 5.31 4.04 7.62 2 10 C1.34 9.67 0.68 9.34 0 9 C0 6.03 0 3.06 0 0 Z " fill="#16273F" transform="translate(321,483)"/>
<path d="M0 0 C0.66 0 1.32 0 2 0 C2.12 5.778 1.832 11.28 1 17 C0.67 16.01 0.34 15.02 0 14 C-0.66 14 -1.32 14 -2 14 C-1.86 11.854 -1.713 9.708 -1.562 7.562 C-1.481 6.368 -1.4 5.173 -1.316 3.941 C-1 1 -1 1 0 0 Z " fill="#1A2C44" transform="translate(338,451)"/>
<path d="M0 0 C0.33 0 0.66 0 1 0 C1.33 2.97 1.66 5.94 2 9 C1.01 9.495 1.01 9.495 0 10 C-0.727 11.979 -1.398 13.98 -2 16 C-2.33 16 -2.66 16 -3 16 C-3.33 13.03 -3.66 10.06 -4 7 C-3.34 7 -2.68 7 -2 7 C-1.856 6.031 -1.711 5.061 -1.562 4.062 C-1 1 -1 1 0 0 Z " fill="#223147" transform="translate(268,293)"/>
<path d="M0 0 C0 0.66 0 1.32 0 2 C-0.959 2.155 -0.959 2.155 -1.938 2.312 C-2.618 2.539 -3.299 2.766 -4 3 C-4.33 3.99 -4.66 4.98 -5 6 C-7.812 7.125 -7.812 7.125 -11 8 C-11.743 8.248 -12.485 8.495 -13.25 8.75 C-14.116 8.874 -14.116 8.874 -15 9 C-15.66 8.34 -16.32 7.68 -17 7 C-14.544 5.829 -12.085 4.663 -9.625 3.5 C-8.926 3.166 -8.228 2.832 -7.508 2.488 C-2.227 0 -2.227 0 0 0 Z " fill="#0F253C" transform="translate(400,472)"/>
<path d="M0 0 C2 3 2 3 1.625 5.688 C1.419 6.451 1.212 7.214 1 8 C0.34 7.34 -0.32 6.68 -1 6 C-1.392 6.495 -1.784 6.99 -2.188 7.5 C-4.551 9.456 -6.014 9.242 -9 9 C-8.67 8.01 -8.34 7.02 -8 6 C-7.01 6 -6.02 6 -5 6 C-4.67 4.68 -4.34 3.36 -4 2 C-2.68 2 -1.36 2 0 2 C0 1.34 0 0.68 0 0 Z " fill="#2D384D" transform="translate(430,385)"/>
<path d="M0 0 C1.093 0.371 2.186 0.743 3.312 1.125 C5.639 1.5 7.972 1.844 10.312 2.125 C10.312 2.455 10.312 2.785 10.312 3.125 C8.663 3.125 7.012 3.125 5.312 3.125 C5.312 3.785 5.312 4.445 5.312 5.125 C4.322 5.455 3.332 5.785 2.312 6.125 C1.652 5.135 0.993 4.145 0.312 3.125 C-2.25 2.395 -2.25 2.395 -4.688 2.125 C-4.688 1.465 -4.688 0.805 -4.688 0.125 C-2.688 -0.875 -2.688 -0.875 0 0 Z M-9.688 2.125 C-8.038 2.125 -6.387 2.125 -4.688 2.125 C-5.017 3.115 -5.348 4.105 -5.688 5.125 C-7.007 4.795 -8.327 4.465 -9.688 4.125 C-9.688 3.465 -9.688 2.805 -9.688 2.125 Z " fill="#EBEBED" transform="translate(401.6875,348.875)"/>
<path d="M0 0 C2.01 3.015 2.726 5.215 3.625 8.688 C3.885 9.681 4.146 10.675 4.414 11.699 C4.607 12.458 4.801 13.218 5 14 C3.68 14.33 2.36 14.66 1 15 C0.867 14.397 0.734 13.793 0.598 13.172 C0.421 12.373 0.244 11.573 0.062 10.75 C-0.112 9.961 -0.286 9.172 -0.465 8.359 C-0.948 6.231 -1.462 4.115 -2 2 C-1.34 2 -0.68 2 0 2 C0 1.34 0 0.68 0 0 Z " fill="#263147" transform="translate(270,304)"/>
<path d="M0 0 C4.534 3.684 8.363 7.428 12 12 C12.66 12.66 13.32 13.32 14 14 C13.01 14.33 12.02 14.66 11 15 C9.369 13.423 7.745 11.838 6.125 10.25 C5.22 9.368 4.315 8.487 3.383 7.578 C1.355 5.384 0.111 3.733 -1 1 C-0.67 0.67 -0.34 0.34 0 0 Z " fill="#ECEDEE" transform="translate(363,341)"/>
<path d="M0 0 C3.387 1.439 5.359 3.221 7.75 6 C8.67 7.052 8.67 7.052 9.609 8.125 C11 10 11 10 11 12 C8.066 10.653 5.749 9.114 3.312 7 C2.711 6.484 2.109 5.969 1.488 5.438 C0 4 0 4 -1 2 C-0.67 1.34 -0.34 0.68 0 0 Z " fill="#383E4F" transform="translate(293,352)"/>
<path d="M0 0 C0.66 0.33 1.32 0.66 2 1 C1.242 1.489 1.242 1.489 0.469 1.988 C-0.181 2.425 -0.831 2.862 -1.5 3.312 C-2.15 3.742 -2.799 4.171 -3.469 4.613 C-3.974 5.071 -4.479 5.529 -5 6 C-5 6.99 -5 7.98 -5 9 C-6.32 9.33 -7.64 9.66 -9 10 C-9 9.01 -9 8.02 -9 7 C-10.65 7 -12.3 7 -14 7 C-13.01 6.34 -12.02 5.68 -11 5 C-10.67 4.34 -10.34 3.68 -10 3 C-8.004 2.645 -6.003 2.314 -4 2 C-3.257 1.629 -2.515 1.257 -1.75 0.875 C-0.884 0.442 -0.884 0.442 0 0 Z " fill="#253248" transform="translate(276,468)"/>
<path d="M0 0 C0.66 0 1.32 0 2 0 C4.614 3.921 4.294 7.445 4 12 C3.34 12.66 2.68 13.32 2 14 C1.471 12.044 0.952 10.085 0.438 8.125 C0.147 7.034 -0.143 5.944 -0.441 4.82 C-1 2 -1 2 0 0 Z " fill="#14273E" transform="translate(431,417)"/>
<path d="M0 0 C0.99 0 1.98 0 3 0 C3.369 5.538 3.369 5.538 1.5 7.875 C0.757 8.432 0.757 8.432 0 9 C-0.99 8.67 -1.98 8.34 -3 8 C-2.25 2.25 -2.25 2.25 0 0 Z " fill="#13243E" transform="translate(315,198)"/>
<path d="M0 0 C6.345 0.599 6.345 0.599 8.938 2.188 C10.473 4.806 10.198 7.029 10 10 C8 7 8 7 8 5 C7.34 5 6.68 5 6 5 C6 5.66 6 6.32 6 7 C5.01 7 4.02 7 3 7 C3 5.02 3 3.04 3 1 C2.01 0.67 1.02 0.34 0 0 Z " fill="#A4BFC8" transform="translate(315,196)"/>
<path d="M0 0 C2.31 1.98 4.62 3.96 7 6 C6.67 6.99 6.34 7.98 6 9 C3 9 3 9 0.75 7.312 C-1 5 -1 5 -0.75 2.25 C-0.502 1.507 -0.255 0.765 0 0 Z " fill="#16253A" transform="translate(371,285)"/>
<path d="M0 0 C3.27 0.564 4.826 1.5 7 4 C6.67 4.66 6.34 5.32 6 6 C5.34 6 4.68 6 4 6 C4.33 6.99 4.66 7.98 5 9 C2.03 8.505 2.03 8.505 -1 8 C-0.67 5.36 -0.34 2.72 0 0 Z " fill="#E9EAED" transform="translate(357,187)"/>
<path d="M0 0 C3.343 -0.074 5.804 -0.065 9 1 C8.125 5.75 8.125 5.75 7 8 C6.34 8 5.68 8 5 8 C5 6.68 5 5.36 5 4 C4.361 3.897 3.721 3.794 3.062 3.688 C2.382 3.461 1.701 3.234 1 3 C0.67 2.01 0.34 1.02 0 0 Z " fill="#FAFAFA" transform="translate(369,383)"/>
<path d="M0 0 C-2 3 -2 3 -4.164 3.73 C-5.382 3.957 -5.382 3.957 -6.625 4.188 C-7.851 4.425 -7.851 4.425 -9.102 4.668 C-10.041 4.832 -10.041 4.832 -11 5 C-11.33 7.64 -11.66 10.28 -12 13 C-12.33 13 -12.66 13 -13 13 C-13.812 9.812 -13.812 9.812 -14 6 C-9.557 0.477 -6.888 -0.128 0 0 Z " fill="#34475C" transform="translate(321,193)"/>
<path d="M0 0 C3.821 0.531 6.062 1.497 9 4 C7.35 3.67 5.7 3.34 4 3 C3.67 4.65 3.34 6.3 3 8 C1.35 6.35 -0.3 4.7 -2 3 C-1.34 2.01 -0.68 1.02 0 0 Z " fill="#EFEFF1" transform="translate(320,365)"/>
<path d="M0 0 C1.98 1.65 3.96 3.3 6 5 C5.01 5.495 5.01 5.495 4 6 C4.66 7.65 5.32 9.3 6 11 C3 11 3 11 0.812 9 C0.214 8.34 -0.384 7.68 -1 7 C-0.34 6.34 0.32 5.68 1 5 C0.34 4.67 -0.32 4.34 -1 4 C-0.67 2.68 -0.34 1.36 0 0 Z " fill="#203147" transform="translate(357,270)"/>
<path d="M0 0 C2.64 0.66 5.28 1.32 8 2 C8 2.99 8 3.98 8 5 C6.68 5 5.36 5 4 5 C4 5.99 4 6.98 4 8 C4.66 8 5.32 8 6 8 C5.67 8.99 5.34 9.98 5 11 C2.658 8.871 1.164 6.956 0 4 C0 2.68 0 1.36 0 0 Z " fill="#D6D9DD" transform="translate(285,230)"/>
<path d="M0 0 C0 0.66 0 1.32 0 2 C-1.996 3.996 -3.479 4.814 -6 6 C-6.743 6.371 -7.485 6.743 -8.25 7.125 C-8.827 7.414 -9.405 7.702 -10 8 C-10.33 6.68 -10.66 5.36 -11 4 C-9.733 3.326 -8.461 2.661 -7.188 2 C-6.48 1.629 -5.772 1.257 -5.043 0.875 C-3 0 -3 0 0 0 Z " fill="#1C2F48" transform="translate(254,204)"/>
</svg>
